<svg fill="none" height="113" viewBox="0 0 357 113" width="357" xmlns="http://www.w3.org/2000/svg"><g fill="#487a6e"><path d="m2.13712 86.9847v1.0153h21.57558v-1.0153c-4.5689-.4231-6.6842-2.0307-6.6842-5.8381v-24.96h24.96v24.96c0 3.7228-1.946 5.3304-6.4304 5.8381v1.0153h21.5756v-1.0153c-4.5689-.4231-6.6842-2.0307-6.6842-5.8381v-47.8894c0-3.8074 2.1153-5.415 6.6842-5.8381v-1.0153h-21.5756v1.0153c4.4844.5077 6.4304 2.1153 6.4304 5.8381v21.2372h-24.96v-21.2372c0-3.8074 2.1153-5.415 6.6842-5.8381v-1.0153h-21.57558v1.0153c4.48434.5077 6.43037 2.1153 6.43037 5.8381v47.8894c0 3.7228-1.94603 5.3304-6.43037 5.8381zm76.56358 1.8614c12.0147 0 18.9527-8.9687 18.9527-22.1679 0-13.1145-6.938-21.8294-19.0373-21.8294-12.1838 0-19.2911 8.8841-19.2911 22.4217 0 12.8608 7.1073 21.5756 19.3757 21.5756zm-11.0839-22.3371c0-12.0146 3.3844-20.391 10.4917-20.391 7.6149 0 11.2531 8.7994 11.2531 21.5756 0 11.5069-3.2152 19.8833-9.984 19.8833-7.9533 0-11.7608-8.7994-11.7608-21.0679zm55.2642 22.3371c11.084 0 18.614-11.507 18.614-22.7601 0-12.9454-7.192-21.2372-15.737-21.2372-5.584 0-9.9 2.6229-12.945 7.6149v-7.1918l-.931-.5923-12.0995 4.3997v1.0153c3.8075 0 5.5845 2.2845 5.5845 6.092v43.5742c0 2.1152-1.946 4.0612-5.5845 4.5692v1.015h18.6985v-1.015c-3.722-.423-5.838-2.369-5.838-4.5692v-12.9453c2.285.7614 5.331 2.0306 10.238 2.0306zm-9.899-8.6302v-25.6369c1.946-3.3844 5.076-5.4151 8.545-5.4151 6.346 0 11.677 6.515 11.677 20.0526 0 12.9454-3.977 18.022-10.238 18.022-3.469 0-7.869-2.3691-9.984-7.0226zm51.977 8.6302c7.277 0 12.523-3.2998 15.907-9.6456l-.931-.6768c-2.284 3.1305-6.515 5.8381-11.253 5.8381-8.968 0-14.637-7.3611-14.637-19.7988 0-1.1846 0-2.2845.084-3.3844h26.06l.339-.5077c0-9.0533-6.261-15.8221-15.822-15.8221-11.084 0-18.953 7.4457-18.953 21.9987 0 13.0299 8.461 21.9986 19.206 21.9986zm-10.745-29.1059c.846-8.9687 3.977-13.6222 9.815-13.6222 5.076 0 8.545 4.5689 8.63 13.6222z"/><path d="m190.994 88.8461c5.161 0 11.846-3.9767 17.853-13.8761l-.339 1.1c-3.215 9.3071-1.015 12.7761 4.992 12.7761 17.515 0 27.16-27.1599 27.16-36.89 0-5.3305-3.469-7.1073-6.176-7.1073-2.792 0-4.738 2.0307-4.738 4.3151 0 4.569 7.53 3.8921 7.53 8.5457 0 7.1918-9.223 27.1598-18.784 27.1598-3.046 0-5.584-2.1152-2.369-12.5223 4.062-13.3684 6.431-16.8374 7.7-22.0832.931-3.7229-1.1-5.4151-3.3-5.4151-2.284 0-3.554 1.0999-4.484 6.6842-2.708 16.4144-14.553 33.3364-20.307 33.3364-2.792 0-3.299-2.1152-.338-10.9993l6.43-19.2911c2.285-6.7688 1.692-9.7302-2.115-9.7302-3.554 0-8.123 3.2998-12.945 11.0839l1.1.7615c3.553-5.2458 4.992-6.2611 6.176-6.2611 1.185 0 1.438 1.4384-.508 7.1918l-5.753 16.9221c-3.638 10.8301-2.792 14.2991 3.215 14.2991zm54.378 0c4.654 0 11.676-4.6536 17.768-16.1605l-1.946 6.4303c-.846 2.7922-1.269 4.8228-1.269 6.3458 0 2.5383 1.185 3.3844 3.384 3.3844 3.554 0 8.123-3.2998 12.946-11.0839l-1.1-.7615c-3.554 5.2458-4.992 6.2611-6.177 6.2611-.592 0-.93-.2538-.93-1.1845 0-1.0153.507-2.8768 1.438-6.0073l8.969-29.7828c-3.131-.8461-7.954-1.4384-11.338-1.4384-13.876 0-27.837 20.3065-27.837 36.1286 0 5.1612 2.115 7.8687 6.092 7.8687zm1.777-9.1379c0-12.4377 11.084-33.421 18.953-33.421 1.861 0 3.384.5923 4.568 2.0306l-.93 3.046-2.2 7.0226c-6.346 19.2912-14.553 25.7215-17.853 25.7215-1.946 0-2.538-1.2691-2.538-4.3997zm43.571-24.3677-10.069 32.6595h7.53l2.962-9.6456c6.599-20.4756 11.676-27.0752 14.553-27.0752 2.453 0 2.961 2.3691 5.669 2.3691 2.284 0 4.146-1.6076 4.822-3.8921.762-2.4537-.761-4.9074-4.484-4.9074-4.569 0-9.222 3.046-15.061 15.2298l2.37-7.7841c1.607-5.3304.592-7.4457-2.877-7.4457-3.554 0-8.123 3.2998-12.946 11.0839l1.1.7615c3.554-5.2458 4.908-6.2611 6.092-6.2611.931 0 1.608.8461.339 4.9074zm43.413 33.5056c3.553 0 8.122-3.2998 12.945-11.0839l-1.1-.7615c-3.553 5.2458-4.992 6.2611-6.176 6.2611-1.185 0-1.354-1.1845.507-7.1918l16.33-53.5583-.677-.5922-12.945 4.0612-.254 1.0154c3.469.1692 4.823 1.6076 3.977 4.3151l-4.231 13.8761c-1.777-.2539-3.553-.3385-5.076-.3385-13.877 0-27.837 20.3065-27.837 36.1286 0 5.1612 2.115 7.8687 6.092 7.8687 4.992 0 12.691-5.3304 19.122-18.7835l-2.793 9.0533c-2.284 7.5303-1.353 9.7302 2.116 9.7302zm-16.584-9.1379c0-12.4377 10.999-33.421 18.868-33.421 1.862 0 3.385.5923 4.569 2.0306l-2.369 7.7842c-6.6 21.6602-15.314 28.0059-18.276 28.0059-1.861 0-2.792-1.0153-2.792-4.3997z"/><path d="m147.978 108.629c1.822 0 2.87-1.066 3.162-1.788l-.258-.223c-.567.876-1.357 1.117-2.165 1.117-1.925 0-3.54-1.306-3.54-3.609 0-1.994 1.014-3.094 2.509-3.094 1.306 0 1.821.859 1.907 1.633.035.533.379.704.688.704.395 0 .722-.309.722-.79 0-.859-1.014-1.959-2.905-1.959-2.217 0-4.142 1.478-4.142 4.004 0 2.492 1.856 4.005 4.022 4.005zm21.466 0c2.149 0 3.953-1.616 3.953-4.039 0-2.441-1.804-3.97-3.884-3.97-2.148 0-3.953 1.615-3.953 4.038 0 2.441 1.805 3.971 3.884 3.971zm-2.56-4.589c0-2.011.91-2.991 2.165-2.991 1.787 0 3.008 1.891 3.008 4.177 0 1.993-.894 2.956-2.166 2.956-1.787 0-3.007-1.891-3.007-4.142zm28.527 4.589c.464 0 .928-.207 1.117-.43v-.172c-.499.103-.894.052-.894-.567v-3.987c0-1.994-1.186-2.836-2.578-2.836-1.512 0-2.251 1.014-2.44 1.203-.224.223-.361.017-.361-.688 0-.412-.241-.584-.567-.498l-1.771.412v.293c1.014-.086 1.135.257 1.135 1.014v4.984c0 .567-.293.756-1.1.842v.326h3.403v-.326c-.808-.086-1.1-.275-1.1-.842v-3.489c0-1.478.825-2.475 2.148-2.475 1.341 0 2.028.997 2.028 2.475v3.643c0 .808.412 1.118.98 1.118zm18.612 0c1.925 0 3.197-.911 3.197-2.269 0-1.444-1.582-1.873-2.853-2.337-1.1-.396-1.874-.739-1.874-1.788 0-.773.533-1.254 1.496-1.254.979 0 1.684.515 2.096 1.632.086.241.189.327.361.327.533 0 .481-.928.103-1.684-.515-.379-1.357-.636-2.303-.636-1.77 0-2.921.842-2.921 2.148s1.22 1.89 2.423 2.32c1.048.395 2.217.636 2.217 1.839 0 .842-.619 1.323-1.701 1.323-1.221 0-1.908-.584-2.355-1.77-.086-.24-.189-.326-.344-.326-.55 0-.498.945-.12 1.701.533.481 1.444.774 2.578.774zm21.569 0c1.443 0 2.2-.946 2.423-1.118.086-.068.12-.086.206-.086.121 0 .121.069.138.19.086.704.515 1.014 1.065 1.014.447 0 .911-.207 1.1-.43v-.172c-.498.069-.893.052-.893-.567v-6.342c0-.378-.224-.55-.568-.464l-1.77.412v.293c1.031-.052 1.135.24 1.135.996v3.18c0 1.375-.86 2.372-2.166 2.372s-2.011-.997-2.011-2.372v-4.417c0-.378-.24-.55-.567-.464l-1.77.412v.293c1.014-.052 1.134.24 1.134.996v3.541c0 1.89 1.169 2.733 2.544 2.733zm21.091 0c.464 0 .911-.207 1.117-.43v-.172c-.498.069-.894.052-.894-.567v-9.7277c0-.3953-.24-.5671-.567-.4812l-1.77.4296v.2922c1.014-.1031 1.134.2406 1.134.9796v8.5585c0 .808.413 1.118.98 1.118zm18.322-.018c.688 0 1.1-.206 1.409-.515.035-.035.086-.189-.137-.344-.189.206-.498.361-.945.361-.842 0-1.031-.636-1.031-1.667v-4.658c0-.412.103-.532.824-.515l1.358.068v-.567h-1.358c-.721 0-.824-.103-.824-.429l.017-1.2034c0-.0859-.069-.1547-.138-.1547h-.137c-.069 0-.138.0344-.189.1203-.499.8938-1.049 1.4268-1.925 1.7878v.343h.825c.206 0 .343.086.343.516v4.915c0 1.375.791 1.942 1.908 1.942zm16.249-.412v.326h3.437v-.326c-.807-.086-1.1-.275-1.1-.842v-6.239c0-.378-.24-.55-.567-.464l-1.753.412v.293c.997-.086 1.117.257 1.117 1.014v4.984c0 .567-.292.756-1.134.842zm.808-10.3979c0 .4468.326.7733.756.7733.447 0 .773-.3265.773-.7733 0-.4469-.326-.7734-.773-.7734-.43 0-.756.3265-.756.7734zm24.731 10.8279c.464 0 .928-.207 1.117-.43v-.172c-.498.103-.893.052-.893-.567v-3.987c0-1.994-1.186-2.836-2.578-2.836-1.513 0-2.252 1.014-2.441 1.203-.223.223-.361.017-.361-.688 0-.412-.24-.584-.567-.498l-1.77.412v.293c1.014-.086 1.134.257 1.134 1.014v4.984c0 .567-.292.756-1.1.842v.326h3.403v-.326c-.808-.086-1.1-.275-1.1-.842v-3.489c0-1.478.825-2.475 2.149-2.475 1.34 0 2.028.997 2.028 2.475v3.643c0 .808.412 1.118.979 1.118zm18.664 3.093c2.303 0 4.365-1.048 4.365-2.664 0-1.083-.928-1.495-2.526-1.77l-2.904-.498c-.43-.069-.739-.224-.739-.55 0-.293.223-.516.704-.516.395 0 .877.103 1.513.103 1.89 0 3.076-1.031 3.076-2.612 0-.292 0-.567-.103-.86-.189-.532.189-.79.67-.635.378.12.825-.035.825-.499 0-.326-.292-.601-.791-.601-.756 0-1.014.601-.996 1.22-.499-.808-1.581-1.22-2.733-1.22-1.908 0-3.111 1.065-3.111 2.646 0 1.014.481 1.719 1.255 2.183-.928.138-1.409.584-1.409 1.169 0 .618.567 1.117 1.323 1.22.619.086-1.667.258-1.667 1.908 0 1.289 1.426 1.976 3.248 1.976zm-2.028-2.183c0-.91.619-1.684 2.561-1.357l1.237.223c.911.138 1.358.464 1.358 1.152 0 1.1-1.066 1.77-2.578 1.77-1.34 0-2.578-.533-2.578-1.788zm.602-6.616c0-1.049.395-1.96 1.512-1.96 1.237 0 2.08 1.049 2.08 2.561 0 1.049-.396 1.959-1.513 1.959-1.22 0-2.079-1.048-2.079-2.56z"/></g></svg>