<svg width="108" height="32" viewBox="0 0 108 32" fill="none" xmlns="http://www.w3.org/2000/svg">
<path d="M2.81108 13.1454H1.02344V11.7658L2.81108 11.5129L3.38404 8.50083H4.87374V11.5129H7.39478V13.1684H4.87374V19.8133C4.87374 20.0585 4.89666 20.2885 4.9425 20.5031C4.98833 20.7177 5.06473 20.9093 5.17168 21.0779C5.29391 21.2465 5.46198 21.3844 5.67589 21.4917C5.88979 21.5837 6.15718 21.6297 6.47804 21.6297C6.6461 21.6297 6.83709 21.622 7.051 21.6067C7.28018 21.5761 7.54756 21.5224 7.85314 21.4458V23.1932C7.5934 23.2545 7.31838 23.2928 7.02808 23.3082C6.75306 23.3388 6.49331 23.3542 6.24885 23.3542C5.63769 23.3542 5.11057 23.2622 4.66748 23.0782C4.23966 22.879 3.88825 22.6184 3.61323 22.2965C3.3382 21.9746 3.13194 21.6067 2.99443 21.1928C2.8722 20.7636 2.81108 20.3268 2.81108 19.8823V13.1454Z" fill="#F4F3EA" fill-opacity="0.64"/>
<path d="M8.43792 17.3071C8.43792 16.4333 8.57543 15.6286 8.85046 14.8928C9.12548 14.1571 9.50745 13.5286 9.99638 13.0074C10.4853 12.4709 11.0659 12.057 11.7382 11.7658C12.4257 11.4592 13.1744 11.3059 13.9842 11.3059C14.8093 11.3059 15.5579 11.4592 16.2302 11.7658C16.9178 12.057 17.506 12.4709 17.9949 13.0074C18.4839 13.5286 18.8582 14.1571 19.1179 14.8928C19.393 15.6286 19.5305 16.4333 19.5305 17.3071V17.8129H10.5464C10.6228 18.9625 10.9666 19.8669 11.5778 20.526C12.2042 21.1852 13.0063 21.5147 13.9842 21.5147C14.7634 21.5147 15.4281 21.3231 15.9781 20.9399C16.5281 20.5414 16.9254 19.9819 17.1699 19.2614L19.1409 19.6753C18.82 20.779 18.2012 21.6604 17.2845 22.3195C16.383 22.9786 15.2829 23.3082 13.9842 23.3082C13.1744 23.3082 12.4257 23.1626 11.7382 22.8713C11.0659 22.5647 10.4853 22.1509 9.99638 21.6297C9.50745 21.0932 9.12548 20.4571 8.85046 19.7213C8.57543 18.9855 8.43792 18.1808 8.43792 17.3071ZM13.9842 13.0994C13.0675 13.0994 12.3111 13.383 11.7153 13.9501C11.1194 14.5173 10.7451 15.3067 10.5923 16.3184H17.3761C17.2539 15.3067 16.8872 14.5173 16.276 13.9501C15.6802 13.383 14.9162 13.0994 13.9842 13.0994Z" fill="#F4F3EA" fill-opacity="0.64"/>
<path d="M22.3657 11.5129C22.5185 12.08 22.6331 12.6472 22.7095 13.2143C23.122 12.6625 23.5804 12.2103 24.0846 11.8578C24.6041 11.5052 25.2153 11.3289 25.9181 11.3289L26.1244 13.1454C25.116 13.13 24.2985 13.4213 23.6721 14.0191C23.0457 14.6169 22.7324 15.437 22.7324 16.4793V23.1242H20.6698V14.8468C20.6698 14.0344 20.6621 13.383 20.6468 12.8924C20.6316 12.4019 20.5934 11.9421 20.5323 11.5129H22.3657Z" fill="#F4F3EA" fill-opacity="0.64"/>
<path d="M28.5439 11.5129C28.6967 12.08 28.8113 12.6472 28.8877 13.2143C29.3002 12.6625 29.7586 12.2103 30.2628 11.8578C30.7822 11.5052 31.3934 11.3289 32.0962 11.3289L32.3025 13.1454C31.2941 13.13 30.4767 13.4213 29.8502 14.0191C29.2238 14.6169 28.9106 15.437 28.9106 16.4793V23.1242H26.8479V14.8468C26.8479 14.0344 26.8403 13.383 26.825 12.8924C26.8097 12.4019 26.7715 11.9421 26.7104 11.5129H28.5439Z" fill="#F4F3EA" fill-opacity="0.64"/>
<path d="M40.2278 23.1242C40.1514 22.8943 40.0827 22.6261 40.0216 22.3195C39.9757 22.0129 39.9375 21.7447 39.907 21.5147C39.5097 22.0512 39.0208 22.4881 38.4402 22.8253C37.8596 23.1626 37.1797 23.3312 36.4004 23.3312C35.8046 23.3312 35.2545 23.2469 34.7503 23.0782C34.2461 22.8943 33.8183 22.649 33.4669 22.3425C33.1155 22.0206 32.8404 21.645 32.6418 21.2158C32.4432 20.7713 32.3439 20.2885 32.3439 19.7673C32.3439 18.7096 32.764 17.8972 33.6044 17.3301C34.4447 16.7629 35.6212 16.3874 37.1338 16.2034L39.8382 15.9045V15.2377C39.8382 14.5939 39.6243 14.0804 39.1965 13.6972C38.784 13.2987 38.2339 13.0994 37.5464 13.0994C36.9046 13.0994 36.3546 13.2297 35.8962 13.4903C35.4379 13.7508 35.1246 14.1494 34.9566 14.6859L32.9397 14.387C33.1995 13.4366 33.7419 12.6855 34.567 12.1337C35.392 11.5819 36.3928 11.3059 37.5693 11.3059C38.2263 11.3059 38.8222 11.4132 39.3569 11.6278C39.8917 11.8271 40.3424 12.1184 40.7091 12.5016C41.0911 12.8695 41.3814 13.3216 41.58 13.8581C41.7939 14.3793 41.9009 14.9618 41.9009 15.6056V19.8133C41.9009 20.6257 41.9085 21.2695 41.9238 21.7447C41.9544 22.2198 41.9925 22.6797 42.0384 23.1242H40.2278ZM36.6984 21.5837C37.661 21.5837 38.4249 21.2925 38.9902 20.71C39.5555 20.1275 39.8382 19.3687 39.8382 18.4337V17.353L37.1567 17.6749C36.3164 17.7822 35.6518 18.0045 35.1628 18.3417C34.6739 18.679 34.4295 19.1388 34.4295 19.7213C34.4295 20.2578 34.6357 20.7023 35.0482 21.0549C35.4608 21.4074 36.0108 21.5837 36.6984 21.5837Z" fill="#F4F3EA" fill-opacity="0.64"/>
<path d="M43.6357 14.341H58.739V16.0425H43.6357V14.341Z" fill="#F4F3EA" fill-opacity="0.64"/>
<path d="M61.5898 13.1454H59.8022V11.7658L61.5898 11.5129L62.1628 8.50083H63.6525V11.5129H66.1735V13.1684H63.6525V19.8133C63.6525 20.0585 63.6754 20.2885 63.7212 20.5031C63.7671 20.7177 63.8435 20.9093 63.9504 21.0779C64.0727 21.2465 64.2407 21.3844 64.4546 21.4917C64.6685 21.5837 64.9359 21.6297 65.2568 21.6297C65.4248 21.6297 65.6158 21.622 65.8297 21.6067C66.0589 21.5761 66.3263 21.5224 66.6319 21.4458V23.1932C66.3721 23.2545 66.0971 23.2928 65.8068 23.3082C65.5318 23.3388 65.2721 23.3542 65.0276 23.3542C64.4164 23.3542 63.8893 23.2622 63.4462 23.0782C63.0184 22.879 62.667 22.6184 62.392 22.2965C62.1169 21.9746 61.9107 21.6067 61.7732 21.1928C61.6509 20.7636 61.5898 20.3268 61.5898 19.8823V13.1454Z" fill="#F4F3EA" fill-opacity="0.64"/>
<path d="M78.0854 17.3071C78.0854 18.1808 77.9479 18.9855 77.6729 19.7213C77.3978 20.4571 77.0159 21.0932 76.5269 21.6297C76.038 22.1509 75.4498 22.5647 74.7622 22.8713C74.0899 23.1626 73.3489 23.3082 72.5391 23.3082C71.7293 23.3082 70.9807 23.1626 70.2931 22.8713C69.6208 22.5647 69.0402 22.1509 68.5513 21.6297C68.0624 21.0932 67.6804 20.4571 67.4054 19.7213C67.1304 18.9855 66.9929 18.1808 66.9929 17.3071C66.9929 16.418 67.1304 15.6056 67.4054 14.8698C67.6804 14.1341 68.0624 13.5056 68.5513 12.9844C69.0402 12.4479 69.6208 12.0341 70.2931 11.7428C70.9807 11.4516 71.7293 11.3059 72.5391 11.3059C73.3489 11.3059 74.0899 11.4516 74.7622 11.7428C75.4498 12.0341 76.038 12.4479 76.5269 12.9844C77.0159 13.5056 77.3978 14.1341 77.6729 14.8698C77.9479 15.6056 78.0854 16.418 78.0854 17.3071ZM69.0784 17.3071C69.0784 18.61 69.3916 19.6447 70.0181 20.4111C70.6445 21.1775 71.4849 21.5607 72.5391 21.5607C73.5934 21.5607 74.4337 21.1775 75.0602 20.4111C75.7019 19.6447 76.0227 18.61 76.0227 17.3071C76.0227 16.0195 75.7019 15.0001 75.0602 14.249C74.4337 13.4826 73.5934 13.0994 72.5391 13.0994C71.4849 13.0994 70.6445 13.4826 70.0181 14.249C69.3916 15.0001 69.0784 16.0195 69.0784 17.3071Z" fill="#F4F3EA" fill-opacity="0.64"/>
<path d="M81.0549 11.5129C81.2077 12.08 81.3223 12.6472 81.3987 13.2143C81.8113 12.6625 82.2696 12.2103 82.7738 11.8578C83.2933 11.5052 83.9045 11.3289 84.6073 11.3289L84.8136 13.1454C83.8052 13.13 82.9877 13.4213 82.3613 14.0191C81.7349 14.6169 81.4216 15.437 81.4216 16.4793V23.1242H79.359V14.8468C79.359 14.0344 79.3513 13.383 79.3361 12.8924C79.3208 12.4019 79.2826 11.9421 79.2215 11.5129H81.0549Z" fill="#F4F3EA" fill-opacity="0.64"/>
<path d="M84.7808 11.5129H86.9122L90.3042 20.526L93.6732 11.5129H95.7588L90.9 24.1129C90.732 24.5728 90.541 25.0326 90.3271 25.4925C90.1285 25.9523 89.8687 26.3662 89.5479 26.7341C89.227 27.1173 88.8374 27.4239 88.379 27.6538C87.9206 27.8837 87.3553 27.9987 86.683 27.9987C86.4233 27.9987 86.1406 27.9757 85.8351 27.9297C85.5448 27.8991 85.2545 27.8454 84.9642 27.7688V25.9983C85.3308 26.121 85.6364 26.1976 85.8809 26.2283C86.1254 26.2589 86.3469 26.2742 86.5455 26.2742C86.9275 26.2742 87.2484 26.1976 87.5081 26.0443C87.7831 25.9064 88.0123 25.7224 88.1957 25.4925C88.3943 25.2626 88.5547 25.002 88.6769 24.7107C88.8145 24.4195 88.9367 24.1283 89.0436 23.837L89.3187 23.1242L84.7808 11.5129Z" fill="#F4F3EA" fill-opacity="0.64"/>
<path d="M102.438 7.33203V7.94134H101.383V10.758H100.707V7.94134H99.6531V7.33203H102.438ZM102.781 10.758V7.33203H103.561L104.569 9.78076L105.589 7.33203H106.357V10.758H105.681V8.56214L104.775 10.758H104.363L103.458 8.57364V10.758H102.781Z" fill="#F4F3EA" fill-opacity="0.64"/>
</svg>
