<svg width="129" height="32" viewBox="0 0 129 32" fill="none" xmlns="http://www.w3.org/2000/svg">
<path fill-rule="evenodd" clip-rule="evenodd" d="M10.9985 5.18866C10.1619 5.86046 9.59601 6.86872 9.59601 8.25278C9.59601 9.6493 10.1738 10.9593 11.0983 12.2624C11.938 13.446 13.0355 14.5861 14.1851 15.7523C14.253 15.6865 14.321 15.6207 14.3892 15.5549C15.4555 14.457 16.4657 13.374 17.2509 12.255C18.1677 10.9484 18.7453 9.6368 18.7586 8.2506C18.758 6.87704 18.1929 5.87116 17.3558 5.19804C16.506 4.51475 15.352 4.1576 14.1765 4.15563C13.0009 4.15366 11.8476 4.50691 10.9985 5.18866ZM18.484 12.1894C19.2364 10.9745 19.7408 9.67268 19.7537 8.25725L19.7538 8.25278C19.7538 6.57534 19.0492 5.28856 17.9823 4.43065C16.9275 3.58255 15.542 3.17027 14.1781 3.16798C12.8142 3.16569 11.4281 3.57334 10.3726 4.42084C9.30468 5.27831 8.60082 6.56766 8.60082 8.25278C8.60082 9.71061 9.12642 11.04 9.91074 12.2753C8.66426 11.5021 7.32698 10.9801 5.8703 10.9671L5.8658 10.967C4.17556 10.967 2.87896 11.6662 2.0145 12.7251C1.15993 13.7719 0.744504 15.1469 0.742197 16.5004C0.73989 17.854 1.15065 19.2297 2.00462 20.2772C2.86863 21.337 4.16782 22.0355 5.8658 22.0355C7.31098 22.0355 8.63091 21.5306 9.85849 20.7731C9.09874 21.995 8.59427 23.3037 8.60083 24.7263C8.60852 26.3952 9.31701 27.6822 10.3828 28.5451C11.4372 29.3988 12.8205 29.8229 14.1836 29.8344C15.5465 29.8459 16.932 29.4449 17.9869 28.5936C19.0543 27.7322 19.7538 26.4315 19.7538 24.724C19.7538 23.3172 19.2789 22.0302 18.5571 20.8332C19.7667 21.5616 21.0608 22.0419 22.465 22.0355C24.1467 22.0279 25.4435 21.3247 26.313 20.267C27.1731 19.2207 27.6006 17.8478 27.6121 16.495C27.6236 15.1424 27.2196 13.7674 26.3618 12.7205C25.4938 11.6612 24.1832 10.967 22.4627 10.967C21.0224 10.967 19.7067 11.4536 18.484 12.1894ZM14.8878 16.4642C14.9566 16.3936 15.0255 16.323 15.0943 16.2522C16.1841 15.2009 17.2606 14.2072 18.3789 13.4356C19.6984 12.5251 21.0335 11.9547 22.4627 11.9547C23.8864 11.9547 24.9124 12.5171 25.5897 13.3436C26.2771 14.1826 26.6269 15.3226 26.6169 16.4867C26.607 17.6507 26.2376 18.7963 25.5419 19.6427C24.8554 20.4777 23.837 21.0416 22.4605 21.0479C21.0656 21.0542 19.743 20.4832 18.4189 19.564C17.4704 18.9055 16.5457 18.0862 15.6133 17.2079C15.373 16.9582 15.1303 16.7104 14.8878 16.4642ZM13.4287 16.4876C12.2515 17.6306 11.1007 18.7222 9.90602 19.557C8.59301 20.4744 7.27298 21.0479 5.8658 21.0479C4.47118 21.0479 3.45523 20.4863 2.7783 19.656C2.09135 18.8133 1.7354 17.6687 1.73739 16.5021C1.73937 15.3355 2.09924 14.1902 2.78775 13.3469C3.46599 12.5161 4.47951 11.9553 5.86351 11.9547C7.26032 11.9678 8.58194 12.541 9.89855 13.451C11.0957 14.2783 12.2519 15.3573 13.4287 16.4876ZM14.1685 17.1999C14.4144 17.4365 14.6617 17.6731 14.9104 17.9076C15.7891 18.8212 16.6079 19.7313 17.2663 20.6711C18.1838 21.9807 18.7586 23.3057 18.7586 24.724C18.7586 26.1369 18.1919 27.1552 17.359 27.8273C16.5137 28.5095 15.365 28.8566 14.192 28.8468C13.0191 28.8369 11.8648 28.4704 11.0119 27.7798C10.1705 27.0986 9.6023 26.0879 9.59601 24.7218C9.58963 23.3374 10.1649 22.0249 11.0912 20.7108C11.9279 19.5238 13.0221 18.3745 14.1685 17.1999Z" fill="#F4F3EA" fill-opacity="0.64"/>
<path d="M104.296 25.3902V24.4568L107.09 23.9768H108.219L111.04 24.4568V25.3902H104.296ZM106.096 25.3902C106.114 24.9813 106.123 24.448 106.123 23.7902C106.141 23.1146 106.15 22.4213 106.15 21.7102C106.168 20.9813 106.177 20.3413 106.177 19.7902V18.4835C106.177 17.9857 106.168 17.5591 106.15 17.2035C106.15 16.8302 106.141 16.4835 106.123 16.1635C106.123 15.8435 106.114 15.5057 106.096 15.1502L104.108 14.8835V14.0035L108.192 12.4302L108.595 12.6968L108.837 16.1102V19.7902C108.837 20.3413 108.837 20.9813 108.837 21.7102C108.855 22.4213 108.864 23.1146 108.864 23.7902C108.882 24.448 108.899 24.9813 108.917 25.3902H106.096ZM108.783 18.0835L108.272 16.3235H108.676C108.944 15.488 109.285 14.7857 109.697 14.2168C110.127 13.6302 110.592 13.1857 111.094 12.8835C111.613 12.5813 112.124 12.4302 112.625 12.4302C113.073 12.4302 113.476 12.5368 113.835 12.7502C114.211 12.9457 114.471 13.248 114.614 13.6568C114.596 14.2613 114.444 14.7324 114.157 15.0702C113.888 15.3902 113.494 15.5502 112.975 15.5502C112.652 15.5502 112.348 15.4791 112.061 15.3368C111.792 15.1946 111.524 14.9902 111.255 14.7235L110.53 14.0035L111.766 13.9235C111.049 14.2968 110.44 14.8391 109.938 15.5502C109.437 16.2435 109.052 17.088 108.783 18.0835Z" fill="#F4F3EA" fill-opacity="0.64"/>
<path d="M97.3115 25.7368C96.2009 25.7368 95.1709 25.488 94.2215 24.9902C93.29 24.4746 92.5376 23.728 91.9644 22.7502C91.3911 21.7546 91.1045 20.5457 91.1045 19.1235C91.1045 17.6835 91.3911 16.4657 91.9644 15.4702C92.5555 14.4746 93.3258 13.7191 94.2752 13.2035C95.2246 12.688 96.2367 12.4302 97.3115 12.4302C98.4042 12.4302 99.4164 12.688 100.348 13.2035C101.297 13.7191 102.068 14.4746 102.659 15.4702C103.25 16.448 103.545 17.6657 103.545 19.1235C103.545 20.5457 103.25 21.7546 102.659 22.7502C102.085 23.728 101.324 24.4746 100.375 24.9902C99.4432 25.488 98.4222 25.7368 97.3115 25.7368ZM97.3115 24.6168C98.0101 24.6168 98.6013 24.4124 99.085 24.0035C99.5865 23.5946 99.9627 22.9902 100.214 22.1902C100.482 21.3724 100.617 20.3502 100.617 19.1235C100.617 17.8791 100.482 16.848 100.214 16.0302C99.9627 15.2124 99.5865 14.5991 99.085 14.1902C98.6013 13.7813 98.0101 13.5768 97.3115 13.5768C96.6129 13.5768 96.0128 13.7813 95.5112 14.1902C95.0276 14.5991 94.6603 15.2213 94.4096 16.0568C94.1588 16.8746 94.0334 17.9057 94.0334 19.1502C94.0334 20.3591 94.1588 21.3724 94.4096 22.1902C94.6603 22.9902 95.0276 23.5946 95.5112 24.0035C96.0128 24.4124 96.6129 24.6168 97.3115 24.6168Z" fill="#F4F3EA" fill-opacity="0.64"/>
<path d="M76.5394 25.3902V24.4569L78.4203 24.1369C78.4382 23.6924 78.4472 23.2124 78.4472 22.6969C78.4472 22.1635 78.4472 21.648 78.4472 21.1502C78.4651 20.6346 78.4741 20.1813 78.4741 19.7902V8.08352L76.405 7.79019V6.88352L80.7849 5.71019L81.1342 5.95019L81.0267 10.0035V14.7502L81.1073 15.0435V23.3369L80.7849 25.6835L76.5394 25.3902ZM84.6542 25.7369C84.1168 25.7369 83.5973 25.6569 83.0957 25.4969C82.6121 25.3369 82.1373 25.0524 81.6716 24.6435C81.2238 24.2346 80.7938 23.6835 80.3818 22.9902H79.9519L80.1937 21.8169C80.8386 22.6346 81.4745 23.2302 82.1015 23.6035C82.7285 23.9591 83.3555 24.1369 83.9824 24.1369C84.6094 24.1369 85.1737 23.9591 85.6752 23.6035C86.1768 23.2302 86.5799 22.6702 86.8844 21.9235C87.1889 21.1769 87.3412 20.2346 87.3412 19.0969C87.3412 17.408 87.0367 16.1457 86.4276 15.3102C85.8186 14.4569 85.0304 14.0302 84.063 14.0302C83.7048 14.0302 83.3196 14.1191 82.9076 14.2969C82.4956 14.4569 82.0657 14.7146 81.6179 15.0702C81.17 15.408 80.6864 15.8524 80.1669 16.4035L79.925 15.1502H80.4893C80.9371 14.528 81.4029 14.0213 81.8866 13.6302C82.3702 13.2213 82.8718 12.9191 83.3913 12.7235C83.9287 12.528 84.484 12.4302 85.0572 12.4302C86.0066 12.4302 86.8575 12.688 87.6099 13.2035C88.3802 13.7013 88.9892 14.4302 89.4371 15.3902C89.9028 16.3502 90.1357 17.5324 90.1357 18.9369C90.1357 20.3235 89.8939 21.5324 89.4102 22.5635C88.9265 23.5769 88.2637 24.3591 87.4218 24.9102C86.5978 25.4613 85.6752 25.7369 84.6542 25.7369Z" fill="#F4F3EA" fill-opacity="0.64"/>
<path d="M66.9974 25.3902V24.4568L69.7919 23.9768H70.9205L73.7418 24.4568V25.3902H66.9974ZM68.7977 25.3902C68.8156 24.9813 68.8246 24.448 68.8246 23.7902C68.8425 23.1146 68.8515 22.4213 68.8515 21.7102C68.8694 20.9813 68.8783 20.3413 68.8783 19.7902V18.4835C68.8783 17.9857 68.8694 17.5591 68.8515 17.2035C68.8515 16.8302 68.8425 16.4835 68.8246 16.1635C68.8246 15.8435 68.8156 15.5057 68.7977 15.1502L66.8093 14.8835V14.0035L70.8936 12.4302L71.2966 12.6968L71.5385 16.1102V19.7902C71.5385 20.3413 71.5385 20.9813 71.5385 21.7102C71.5564 22.4213 71.5653 23.1146 71.5653 23.7902C71.5833 24.448 71.6012 24.9813 71.6191 25.3902H68.7977ZM71.4847 18.0835L70.9742 16.3235H71.3773C71.646 15.488 71.9863 14.7857 72.3983 14.2168C72.8282 13.6302 73.294 13.1857 73.7956 12.8835C74.3151 12.5813 74.8256 12.4302 75.3272 12.4302C75.775 12.4302 76.1781 12.5368 76.5363 12.7502C76.9125 12.9457 77.1722 13.248 77.3156 13.6568C77.2976 14.2613 77.1454 14.7324 76.8588 15.0702C76.5901 15.3902 76.196 15.5502 75.6765 15.5502C75.354 15.5502 75.0495 15.4791 74.7629 15.3368C74.4942 15.1946 74.2255 14.9902 73.9568 14.7235L73.2313 14.0035L74.4673 13.9235C73.7508 14.2968 73.1417 14.8391 72.6401 15.5502C72.1386 16.2435 71.7534 17.088 71.4847 18.0835Z" fill="#F4F3EA" fill-opacity="0.64"/>
<path d="M58.4802 25.7368C57.5129 25.7368 56.6888 25.4613 56.0081 24.9102C55.3274 24.3591 54.9871 23.5413 54.9871 22.4568C54.9871 21.9235 55.1035 21.4168 55.3364 20.9368C55.5692 20.4568 56.0081 20.0124 56.653 19.6035C57.3158 19.1768 58.2742 18.7857 59.5281 18.4302C59.958 18.288 60.3969 18.1546 60.8448 18.0302C61.3105 17.9057 61.7763 17.7813 62.242 17.6568C62.7078 17.5146 63.1825 17.3813 63.6661 17.2568V18.1635C63.0212 18.3413 62.4032 18.528 61.8121 18.7235C61.2388 18.9191 60.7014 19.0968 60.1999 19.2568C59.4654 19.5057 58.9101 19.7813 58.5339 20.0835C58.1757 20.3857 57.9338 20.7057 57.8084 21.0435C57.7009 21.3635 57.6472 21.6924 57.6472 22.0302C57.6472 22.7057 57.8353 23.2035 58.2115 23.5235C58.6056 23.8257 59.0892 23.9768 59.6625 23.9768C59.967 23.9768 60.2626 23.9324 60.5492 23.8435C60.8358 23.7368 61.1762 23.5591 61.5702 23.3102C61.9643 23.0435 62.4749 22.6702 63.1018 22.1902L63.4512 23.4702H62.5644C62.0808 23.9857 61.6329 24.4124 61.2209 24.7502C60.8089 25.088 60.388 25.3368 59.958 25.4968C59.546 25.6568 59.0534 25.7368 58.4802 25.7368ZM64.8484 25.6835C64.0602 25.6835 63.4422 25.4524 62.9944 24.9902C62.5644 24.528 62.3316 23.8968 62.2957 23.0968V16.8302C62.2957 15.9768 62.2151 15.3191 62.0539 14.8568C61.8927 14.3768 61.6329 14.048 61.2747 13.8702C60.9164 13.6924 60.4507 13.6035 59.8774 13.6035C59.555 13.6035 59.2057 13.6391 58.8295 13.7102C58.4533 13.7635 58.0234 13.8702 57.5397 14.0302L58.722 13.2035L58.1846 15.3635C58.095 15.8791 57.9159 16.2613 57.6472 16.5102C57.3964 16.7591 57.0829 16.8835 56.7067 16.8835C56.3127 16.8835 55.9992 16.7857 55.7663 16.5902C55.5513 16.3946 55.417 16.1191 55.3632 15.7635C55.5603 14.7502 56.1335 13.9413 57.0829 13.3368C58.0323 12.7324 59.2325 12.4302 60.6835 12.4302C61.6688 12.4302 62.4659 12.5902 63.075 12.9102C63.7019 13.2124 64.1677 13.7102 64.4722 14.4035C64.7767 15.0791 64.929 15.968 64.929 17.0702V22.8568C64.929 23.3546 65.0007 23.7102 65.144 23.9235C65.3052 24.1368 65.5202 24.2435 65.7889 24.2435C66.0038 24.2435 66.183 24.1902 66.3263 24.0835C66.4875 23.9768 66.6487 23.8257 66.8099 23.6302L67.3205 24.1368C67.0338 24.688 66.6845 25.088 66.2725 25.3368C65.8784 25.568 65.4037 25.6835 64.8484 25.6835Z" fill="#F4F3EA" fill-opacity="0.64"/>
<path d="M36.178 25.3902V24.3502L39.6174 23.9502H40.2892L43.7554 24.3502V25.3902H36.178ZM38.4351 25.3902C38.471 24.5191 38.4978 23.6302 38.5157 22.7235C38.5337 21.7991 38.5426 20.8657 38.5426 19.9235C38.5426 18.9635 38.5426 18.0213 38.5426 17.0968V15.8702C38.5426 14.9457 38.5426 14.0213 38.5426 13.0968C38.5426 12.1546 38.5337 11.2213 38.5157 10.2968C38.4978 9.3724 38.471 8.47462 38.4351 7.60351H41.4983C41.4804 8.45685 41.4625 9.34574 41.4446 10.2702C41.4267 11.1946 41.4177 12.128 41.4177 13.0702C41.4177 14.0124 41.4177 14.9457 41.4177 15.8702V16.7502C41.4177 17.7813 41.4177 18.7946 41.4177 19.7902C41.4177 20.768 41.4267 21.728 41.4446 22.6702C41.4625 23.5946 41.4804 24.5013 41.4983 25.3902H38.4351ZM39.9667 16.8835V15.6835H50.8223V16.8835H39.9667ZM47.0336 25.3902V24.3502L50.4998 23.9502H51.1716L54.611 24.3502V25.3902H47.0336ZM49.2907 25.3902C49.3265 24.5191 49.3444 23.6213 49.3444 22.6968C49.3623 21.7724 49.3713 20.8124 49.3713 19.8168C49.3713 18.8213 49.3713 17.7991 49.3713 16.7502V15.8702C49.3713 14.9457 49.3713 14.0213 49.3713 13.0968C49.3713 12.1546 49.3623 11.2213 49.3444 10.2968C49.3444 9.3724 49.3265 8.47462 49.2907 7.60351H52.327C52.3091 8.45685 52.2912 9.34574 52.2733 10.2702C52.2554 11.1946 52.2464 12.128 52.2464 13.0702C52.2464 14.0124 52.2464 14.9457 52.2464 15.8702V17.0968C52.2464 18.0035 52.2464 18.928 52.2464 19.8702C52.2464 20.8124 52.2554 21.7457 52.2733 22.6702C52.2912 23.5946 52.3091 24.5013 52.327 25.3902H49.2907ZM36.178 8.64351V7.60351H43.7554V8.64351L40.2892 9.04351H39.6174L36.178 8.64351ZM47.0336 8.64351V7.60351H54.611V8.64351L51.1716 9.04351H50.4998L47.0336 8.64351Z" fill="#F4F3EA" fill-opacity="0.64"/>
<path d="M119.636 9.99177L118.254 6.89413H118.813L119.78 9.16686L120.747 6.89413H121.307L119.925 9.99177H119.636ZM118.152 9.99177V6.89413H118.695V9.99177H118.152ZM120.866 9.99177V6.89413H121.409V9.99177H120.866ZM116.116 9.99177V7.16349H116.659V9.99177H116.116ZM115.166 7.36551V6.89413H117.609V7.36551H115.166Z" fill="#F4F3EA" fill-opacity="0.64"/>
</svg>
