<svg width="96" height="32" viewBox="0 0 96 32" fill="none" xmlns="http://www.w3.org/2000/svg">
<path fill-rule="evenodd" clip-rule="evenodd" d="M25.18 10.9427C26.4563 10.9427 27.5625 11.2257 28.4985 11.7915C29.4346 12.3574 30.1582 13.1521 30.6688 14.1753C31.185 15.1985 31.443 16.3904 31.443 17.7508C31.443 19.1113 31.185 20.3005 30.6688 21.318C30.1582 22.3354 29.4345 23.127 28.4985 23.6929C27.5625 24.2587 26.4563 24.5417 25.18 24.5417C23.9036 24.5417 22.7975 24.2587 21.8615 23.6929C20.9255 23.127 20.1991 22.3354 19.6829 21.318C19.1723 20.3005 18.917 19.1113 18.917 17.7508C18.917 16.3904 19.1723 15.1986 19.6829 14.1753C20.1991 13.1521 20.9254 12.3574 21.8615 11.7915C22.7975 11.2257 23.9036 10.9427 25.18 10.9427ZM25.1972 13.4033C24.488 13.4033 23.8979 13.598 23.427 13.9867C22.9619 14.3754 22.6127 14.8983 22.3801 15.5556C22.1532 16.2073 22.0399 16.9365 22.0399 17.7425C22.0399 18.5427 22.1532 19.2688 22.3801 19.9204C22.6127 20.5719 22.962 21.0918 23.427 21.4804C23.8979 21.8634 24.488 22.0555 25.1972 22.0555C25.8892 22.0554 26.4677 21.8634 26.9329 21.4804C27.398 21.0918 27.744 20.5719 27.9709 19.9204C28.2035 19.2688 28.3201 18.5427 28.3201 17.7425C28.3201 16.9365 28.2035 16.2073 27.9709 15.5556C27.744 14.8984 27.398 14.3753 26.9329 13.9867C26.4678 13.598 25.8892 13.4033 25.1972 13.4033Z" fill="#F4F3EA" fill-opacity="0.64"/>
<path fill-rule="evenodd" clip-rule="evenodd" d="M50.0478 10.9427C51.3243 10.9427 52.4309 11.2256 53.367 11.7915C54.303 12.3574 55.0261 13.1522 55.5366 14.1753C56.0529 15.1985 56.3108 16.3904 56.3108 17.7508C56.3108 19.1113 56.0529 20.3005 55.5366 21.318C55.0261 22.3353 54.3029 23.127 53.367 23.6929C52.4309 24.2588 51.3243 24.5417 50.0478 24.5417C48.7715 24.5416 47.6653 24.2587 46.7293 23.6929C45.7933 23.127 45.067 22.3354 44.5507 21.318C44.0402 20.3005 43.7848 19.1113 43.7848 17.7508C43.7848 16.3904 44.0402 15.1985 44.5507 14.1753C45.067 13.1521 45.7933 12.3574 46.7293 11.7915C47.6653 11.2256 48.7715 10.9427 50.0478 10.9427ZM50.065 13.4033C49.3559 13.4033 48.7658 13.598 48.2949 13.9867C47.8298 14.3753 47.4812 14.8984 47.2486 15.5556C47.0217 16.2072 46.9078 16.936 46.9077 17.7419C46.9077 18.5421 47.0218 19.2682 47.2486 19.9198C47.4812 20.5714 47.8298 21.0918 48.2949 21.4804C48.7658 21.8634 49.3559 22.0548 50.065 22.0548C50.7571 22.0548 51.3356 21.8634 51.8008 21.4804C52.266 21.0917 52.6125 20.5714 52.8394 19.9198C53.0719 19.2682 53.1879 18.542 53.1879 17.7419C53.1879 16.936 53.072 16.2072 52.8394 15.5556C52.6125 14.8983 52.266 14.3754 51.8008 13.9867C51.3356 13.598 50.7571 13.4033 50.065 13.4033Z" fill="#F4F3EA" fill-opacity="0.64"/>
<path d="M68.9006 11.1141H71.4793V13.5153H68.9006V20.3234C68.9006 20.7405 68.9631 21.0606 69.0879 21.2834C69.2184 21.5007 69.389 21.6492 69.5989 21.7293C69.8088 21.8092 70.0415 21.8495 70.2967 21.8495C70.4895 21.8495 70.6655 21.8352 70.8243 21.8067C70.9886 21.7781 71.1132 21.7521 71.1983 21.7293L71.7176 24.156C71.5531 24.2131 71.3173 24.2761 71.011 24.3447C70.7103 24.4132 70.3415 24.4528 69.9048 24.4643C69.1333 24.4871 68.4382 24.3703 67.8199 24.1131C67.2016 23.8502 66.711 23.444 66.348 22.8953C65.9906 22.3466 65.8147 21.6607 65.8204 20.8376V13.5153H63.9406V24.2845H60.8598V11.1141H65.8204V7.95888H68.9006V11.1141Z" fill="#F4F3EA" fill-opacity="0.64"/>
<path d="M38.8963 10.9427C39.7981 10.9427 40.5839 11.1368 41.2533 11.5254C41.9283 11.9141 42.4507 12.4773 42.8195 13.2146C43.1939 13.952 43.3782 14.8468 43.3726 15.8985V24.2845H40.2917V16.3788C40.2917 15.4985 40.065 14.8095 39.6112 14.3122C39.163 13.815 38.5416 13.5664 37.7474 13.5664C37.2085 13.5665 36.729 13.6865 36.3092 13.9265C35.8952 14.1609 35.5688 14.5009 35.3305 14.9467C35.0979 15.3926 34.982 15.933 34.982 16.5675V24.2845H31.9018V11.1141H34.8456V13.3522H34.9992C35.2998 12.6148 35.7792 12.0289 36.4373 11.5945C37.101 11.1601 37.9206 10.9427 38.8963 10.9427Z" fill="#F4F3EA" fill-opacity="0.64"/>
<path d="M9.09204 19.4484H9.29595L14.47 6.72378H18.3333V24.2839H15.3041V12.22H15.1422L10.3257 24.2327H8.06233L3.24577 12.1944H3.08392V24.2839H0.0546875V6.72378H3.91801L9.09204 19.4484Z" fill="#F4F3EA" fill-opacity="0.64"/>
<path d="M59.8498 24.2839H56.7696V6.72378H59.8498V24.2839Z" fill="#F4F3EA" fill-opacity="0.64"/>
<path d="M75.1916 13.3515H75.3445C75.6509 12.6085 76.1245 12.0225 76.7655 11.5938C77.4122 11.1594 78.2349 10.9427 79.2333 10.9427C80.141 10.9427 80.9324 11.1341 81.6075 11.5171C82.2826 11.9001 82.805 12.46 83.1738 13.1974C83.5482 13.9348 83.7351 14.8353 83.7351 15.8985V24.2839H80.6543V16.3788C80.6543 15.4928 80.4276 14.8038 79.9738 14.3122C79.5256 13.8149 78.8957 13.5664 78.0845 13.5664C77.5399 13.5665 77.0519 13.6865 76.6208 13.9265C76.1955 14.1609 75.8605 14.5009 75.6166 14.9467C75.3784 15.3926 75.2598 15.9331 75.2598 16.5675V24.2839H72.1789V6.72378H75.1916V13.3515Z" fill="#F4F3EA" fill-opacity="0.64"/>
<path d="M87.9699 7.7977H86.7676V10.7969H85.7385V7.7977H84.5731V6.91438H87.9699V7.7977Z" fill="#F4F3EA" fill-opacity="0.64"/>
<path d="M90.9456 9.54002H90.9826L91.9996 6.91438H93.388V10.7969H92.4087V9.34046L92.4329 8.1335H92.3959L91.342 10.7969H90.5735L89.5196 8.1335H89.4948L89.5075 9.34046V10.7969H88.553L88.5402 6.91438H89.9166L90.9456 9.54002Z" fill="#F4F3EA" fill-opacity="0.64"/>
<path d="M62.4088 5.875C62.9023 5.87504 63.3219 6.04112 63.6679 6.37262C64.0196 6.69844 64.1955 7.09553 64.1955 7.56424C64.1955 8.02722 64.0196 8.42432 63.6679 8.75585C63.3219 9.08163 62.9023 9.24448 62.4088 9.24452C61.9209 9.24452 61.5008 9.08168 61.1491 8.75585C60.7975 8.42435 60.6215 8.02715 60.6215 7.56424C60.6215 7.09561 60.7975 6.69841 61.1491 6.37262C61.5008 6.04108 61.9209 5.875 62.4088 5.875Z" fill="#F4F3EA" fill-opacity="0.64"/>
</svg>
