<svg width="108" height="32" viewBox="0 0 108 32" fill="none" xmlns="http://www.w3.org/2000/svg">
<path d="M36.1023 11.1113C36.1023 15.2873 44.9343 14.0393 44.9343 19.7753C44.9343 22.4393 42.9183 24.7193 39.1023 24.7193C36.9183 24.7193 34.9263 23.9753 33.5583 22.8713L33.2463 19.4153H34.1343C34.4463 20.1593 34.6863 20.7833 34.9743 21.1913C35.5983 22.2713 36.8703 23.3993 39.0543 23.3993C41.2864 23.3993 42.5583 22.1033 42.5583 20.4233C42.5583 15.9593 33.7263 17.5673 33.7263 11.7593C33.7263 9.26329 35.6943 7.17529 39.3183 7.17529C40.7103 7.17529 42.2703 7.55928 43.6623 8.11129L43.9743 11.4233H43.0623C42.8703 10.9193 42.5823 10.3193 42.4143 10.0553C41.7423 8.92729 40.5183 8.49529 39.3903 8.49529C37.2783 8.49529 36.1023 9.69529 36.1023 11.1113Z" fill="#F4F3EA" fill-opacity="0.64"/>
<path d="M51.744 23.5673C53.856 23.5673 55.224 21.5273 55.224 18.3113C55.224 15.0953 53.856 13.0793 51.744 13.0793C49.632 13.0793 48.264 15.0953 48.264 18.3113C48.264 21.5273 49.632 23.5673 51.744 23.5673ZM45.744 18.3113C45.744 14.5673 48.216 11.9513 51.744 11.9513C55.272 11.9513 57.72 14.5673 57.72 18.3113C57.72 22.0553 55.272 24.6953 51.744 24.6953C48.216 24.6953 45.744 22.0553 45.744 18.3113Z" fill="#F4F3EA" fill-opacity="0.64"/>
<path d="M62.7847 28.2713C62.7847 29.1593 63.3127 29.6633 64.2007 29.6633H65.0647V30.5753H58.6567V29.6633H59.4247C60.1447 29.6633 60.5527 29.1593 60.5527 28.2713V15.6233C60.5527 14.0153 60.3127 13.8953 58.4887 14.0393V13.1273C60.3847 12.9353 61.0327 12.7193 61.7767 12.1913H62.7847V14.1593C63.8167 12.7673 65.2327 11.9513 66.8647 11.9513C69.7207 11.9513 71.4967 14.2313 71.4967 18.3113C71.4967 22.2233 69.5767 24.6953 66.4807 24.6953C64.9207 24.6953 63.6487 24.0713 62.7847 22.9433V28.2713ZM62.7847 21.0953C63.2887 22.5353 64.2967 23.3033 65.6407 23.3033C67.6327 23.3033 69.0007 21.6713 69.0007 18.5033C69.0007 15.1913 67.8247 13.4873 66.1207 13.4873C64.7767 13.4873 63.6247 14.2793 62.7847 15.7433V21.0953Z" fill="#F4F3EA" fill-opacity="0.64"/>
<path d="M76.4966 22.0313C76.4966 22.9193 76.9046 23.4233 77.6246 23.4233H78.3446V24.3353H72.3686V23.4233H73.1366C73.8566 23.4233 74.2646 22.9193 74.2646 22.0313V9.35929C74.2646 7.75129 74.0246 7.63129 72.2006 7.77529V6.86329C74.0966 6.67129 74.7446 6.45529 75.4886 5.92729H76.4966V14.1833C78.0326 12.6233 79.6166 11.9513 80.9606 11.9513C82.9766 11.9513 84.2006 13.1513 84.2006 15.4313V22.0313C84.2006 22.9193 84.6086 23.4233 85.3286 23.4233H86.0966V24.3353H80.1206V23.4233H80.8406C81.5606 23.4233 81.9686 22.9193 81.9686 22.0313V15.7673C81.9686 14.3273 81.2726 13.5593 80.0006 13.5593C78.9926 13.5593 77.6966 14.1833 76.4966 15.4553V22.0313Z" fill="#F4F3EA" fill-opacity="0.64"/>
<path d="M90.5132 22.0313C90.5132 22.9193 90.9212 23.4233 91.6412 23.4233H92.4092V24.3353H86.3852V23.4233H87.1532C87.8732 23.4233 88.2812 22.9193 88.2812 22.0313V15.6233C88.2812 14.0153 88.0412 13.8953 86.2172 14.0393V13.1273C88.1132 12.9353 88.7612 12.7193 89.5052 12.1913H90.5132V22.0313ZM87.8732 8.54329V8.37529C87.8732 7.53529 88.3532 7.05529 89.1932 7.05529H89.3612C90.2252 7.05529 90.7052 7.53529 90.7052 8.37529V8.54329C90.7052 9.38329 90.2252 9.86329 89.3612 9.86329H89.1932C88.3532 9.86329 87.8732 9.38329 87.8732 8.54329Z" fill="#F4F3EA" fill-opacity="0.64"/>
<path d="M98.4658 11.9513C101.106 11.9513 102.882 13.2233 102.882 15.6713V22.2953C102.882 23.0393 103.17 23.4473 103.674 23.4473C103.986 23.4473 104.274 23.3993 104.778 23.1833L104.994 24.0713C103.626 24.5993 103.122 24.6713 102.498 24.6713C101.226 24.6713 100.65 23.8793 100.65 22.6793V22.6553C99.6658 23.9273 98.3218 24.6953 96.7138 24.6953C94.5778 24.6953 93.2098 23.4473 93.2098 21.2153C93.2098 18.2633 96.7138 16.7993 100.65 16.7753V15.7673C100.65 13.9673 99.7378 13.0313 98.2498 13.0313C96.4258 13.0313 95.4658 14.0633 94.6978 15.6953H93.8578L94.0978 12.9353C95.4898 12.2873 97.0738 11.9513 98.4658 11.9513ZM95.6818 20.9993C95.6818 22.3433 96.4498 23.1593 97.5778 23.1593C98.8258 23.1593 99.9058 22.3673 100.65 21.0233V17.8313C97.6258 17.8553 95.6818 18.7433 95.6818 20.9993Z" fill="#F4F3EA" fill-opacity="0.64"/>
<path d="M13.2044 28.0195H11.7044L12.4544 28.002L13.2044 28.0195ZM13.2044 3.98438V4.00846C13.2047 4.023 13.2055 4.04414 13.2057 4.07096C13.2063 4.12455 13.2062 4.20204 13.2057 4.30078C13.2056 4.33027 13.2048 4.36196 13.2044 4.39518C13.2063 4.56903 13.2104 4.79736 13.2214 5.06836C13.248 5.72488 13.3107 6.62618 13.4551 7.60612C13.7517 9.61924 14.3655 11.7607 15.5306 12.9258C16.6957 14.0908 18.8371 14.7047 20.8503 15.0013C21.8302 15.1457 22.7315 15.2084 23.388 15.235C23.6587 15.246 23.8868 15.2495 24.0605 15.2513C24.094 15.251 24.1259 15.2508 24.1556 15.2507C24.2543 15.2502 24.3318 15.2501 24.3854 15.2507C24.4122 15.2509 24.4334 15.2517 24.4479 15.252H24.4714L24.4544 16.002L24.4714 16.752H24.4479C24.4334 16.7522 24.4122 16.753 24.3854 16.7533C24.3318 16.7538 24.2543 16.7538 24.1556 16.7533C24.1259 16.7531 24.094 16.7523 24.0605 16.752C23.8868 16.7538 23.6587 16.7579 23.388 16.7689C22.7315 16.7955 21.8302 16.8582 20.8503 17.0026C18.8371 17.2992 16.6957 17.9131 15.5306 19.0781C14.3655 20.2432 13.7517 22.3847 13.4551 24.3978C13.3107 25.3777 13.248 26.279 13.2214 26.9355C13.2104 27.2062 13.2063 27.4343 13.2044 27.6081C13.2048 27.6415 13.2056 27.6734 13.2057 27.7031C13.2062 27.8019 13.2063 27.8794 13.2057 27.9329C13.2055 27.9598 13.2047 27.9809 13.2044 27.9954V28.0195L12.4544 28.002L11.7044 28.0195V27.9954C11.7042 27.9809 11.7034 27.9598 11.7031 27.9329C11.7026 27.8794 11.7026 27.8019 11.7031 27.7031C11.7033 27.6734 11.7034 27.6415 11.7038 27.6081C11.7019 27.4343 11.6985 27.2062 11.6875 26.9355C11.6608 26.279 11.5981 25.3777 11.4538 24.3978C11.1572 22.3847 10.5433 20.2432 9.37826 19.0781C8.2132 17.9131 6.07172 17.2992 4.05859 17.0026C3.07865 16.8582 2.17735 16.7955 1.52083 16.7689C1.24984 16.7579 1.0215 16.7538 0.847656 16.752C0.81443 16.7523 0.782746 16.7531 0.753255 16.7533C0.654517 16.7538 0.577027 16.7538 0.523438 16.7533C0.496614 16.753 0.475475 16.7522 0.460938 16.752H0.4375L0.454427 16.002L0.4375 15.252H0.460938C0.475475 15.2517 0.496614 15.2509 0.523438 15.2507C0.577027 15.2501 0.654517 15.2502 0.753255 15.2507C0.782744 15.2508 0.814432 15.251 0.847656 15.2513C1.0215 15.2495 1.24984 15.246 1.52083 15.235C2.17735 15.2084 3.07865 15.1457 4.05859 15.0013C6.07172 14.7047 8.2132 14.0908 9.37826 12.9258C10.5433 11.7607 11.1572 9.61924 11.4538 7.60612C11.5981 6.62618 11.6608 5.72488 11.6875 5.06836C11.6985 4.79737 11.7019 4.56902 11.7038 4.39518C11.7035 4.36196 11.7033 4.33027 11.7031 4.30078C11.7026 4.20204 11.7026 4.12455 11.7031 4.07096C11.7034 4.04414 11.7042 4.023 11.7044 4.00846V3.98503L13.2044 3.98438ZM12.4544 10.1406C12.0539 11.5728 11.4295 12.9969 10.4395 13.987C9.44939 14.977 8.02527 15.6014 6.5931 16.002C8.02527 16.4025 9.44939 17.0269 10.4395 18.0169C11.4294 19.0069 12.0539 20.4307 12.4544 21.8626C12.855 20.4307 13.4795 19.0069 14.4694 18.0169C15.4593 17.027 16.8831 16.4025 18.3151 16.002C16.8831 15.6014 15.4593 14.9769 14.4694 13.987C13.4793 12.9969 12.855 11.5728 12.4544 10.1406ZM0.454427 16.002L0.4375 16.752V15.252L0.454427 16.002ZM24.4714 16.752L24.4544 16.002L24.4714 15.252V16.752Z" fill="#F4F3EA" fill-opacity="0.64"/>
</svg>
