<svg width="96" height="32" viewBox="0 0 96 32" fill="none" xmlns="http://www.w3.org/2000/svg">
<path d="M79.2582 23.7207V8.86143H83.3958V23.7207H79.2582Z" fill="#F4F3EA" fill-opacity="0.64"/>
<path d="M69.0142 24.0013C68.0623 24.0013 67.2141 23.8368 66.4694 23.5079C65.7248 23.1726 65.1355 22.6792 64.7017 22.0278C64.2743 21.37 64.0607 20.5509 64.0607 19.5706C64.0607 18.7451 64.2128 18.0518 64.5172 17.4907C64.8215 16.9296 65.2359 16.4781 65.7604 16.1363C66.2849 15.7945 66.8806 15.5365 67.5475 15.3624C68.2209 15.1883 68.9267 15.0657 69.6649 14.9948C70.5326 14.9045 71.2319 14.8207 71.7629 14.7433C72.2938 14.6594 72.6791 14.5369 72.9187 14.3756C73.1583 14.2144 73.278 13.9758 73.278 13.6598V13.6017C73.278 12.989 73.0838 12.515 72.6953 12.1796C72.3132 11.8443 71.7693 11.6766 71.0635 11.6766C70.3189 11.6766 69.7264 11.841 69.2861 12.17C68.8458 12.4924 68.5544 12.8987 68.412 13.3889L64.5851 13.0793C64.7794 12.1764 65.1614 11.396 65.7312 10.7382C66.3011 10.0739 67.036 9.56443 67.936 9.20971C68.8426 8.84855 69.8915 8.66797 71.083 8.66797C71.9118 8.66797 72.705 8.76471 73.4626 8.95819C74.2267 9.15167 74.9033 9.45156 75.4925 9.85787C76.0882 10.2642 76.5577 10.7866 76.9009 11.4251C77.2441 12.0571 77.4157 12.8149 77.4157 13.6985V23.7208H73.4917V21.6602H73.3752C73.1356 22.1245 72.8151 22.5341 72.4136 22.8888C72.0121 23.2371 71.5298 23.5112 70.9664 23.7111C70.4031 23.9046 69.7523 24.0013 69.0142 24.0013ZM70.1991 21.1571C70.8078 21.1571 71.3452 21.0378 71.8114 20.7992C72.2776 20.5541 72.6435 20.2252 72.909 19.8124C73.1744 19.3997 73.3072 18.9321 73.3072 18.4097V16.8328C73.1777 16.9167 72.9996 16.9941 72.773 17.065C72.5528 17.1295 72.3035 17.1908 72.0251 17.2488C71.7467 17.3004 71.4682 17.3488 71.1898 17.3939C70.9114 17.4326 70.6588 17.4681 70.4322 17.5004C69.9466 17.5713 69.5224 17.6842 69.1598 17.8389C68.7972 17.9937 68.5156 18.2033 68.3148 18.4678C68.1141 18.7257 68.0137 19.0482 68.0137 19.4352C68.0137 19.9963 68.2177 20.4251 68.6256 20.7218C69.0401 21.012 69.5645 21.1571 70.1991 21.1571Z" fill="#F4F3EA" fill-opacity="0.64"/>
<path d="M58.6755 23.7207V8.86143H62.8131V23.7207H58.6755Z" fill="#F4F3EA" fill-opacity="0.64"/>
<path d="M48.4314 24.0013C47.4796 24.0013 46.6313 23.8368 45.8867 23.5079C45.1421 23.1726 44.5528 22.6792 44.119 22.0278C43.6916 21.37 43.4779 20.5509 43.4779 19.5706C43.4779 18.7451 43.6301 18.0518 43.9344 17.4907C44.2388 16.9296 44.6532 16.4781 45.1777 16.1363C45.7022 15.7945 46.2979 15.5365 46.9648 15.3624C47.6382 15.1883 48.344 15.0657 49.0822 14.9948C49.9499 14.9045 50.6492 14.8207 51.1801 14.7433C51.7111 14.6594 52.0964 14.5369 52.336 14.3756C52.5755 14.2144 52.6953 13.9758 52.6953 13.6598V13.6017C52.6953 12.989 52.5011 12.515 52.1126 12.1796C51.7305 11.8443 51.1866 11.6766 50.4808 11.6766C49.7362 11.6766 49.1437 11.841 48.7034 12.17C48.2631 12.4924 47.9717 12.8987 47.8292 13.3889L44.0024 13.0793C44.1967 12.1764 44.5787 11.396 45.1485 10.7382C45.7183 10.0739 46.4533 9.56443 47.3533 9.20971C48.2598 8.84855 49.3088 8.66797 50.5002 8.66797C51.3291 8.66797 52.1223 8.76471 52.8799 8.95819C53.6439 9.15167 54.3206 9.45156 54.9098 9.85787C55.5055 10.2642 55.975 10.7866 56.3182 11.4251C56.6614 12.0571 56.8329 12.8149 56.8329 13.6985V23.7208H52.909V21.6602H52.7924C52.5529 22.1245 52.2323 22.5341 51.8309 22.8888C51.4294 23.2371 50.947 23.5112 50.3837 23.7111C49.8204 23.9046 49.1696 24.0013 48.4314 24.0013ZM49.6164 21.1571C50.2251 21.1571 50.7625 21.0378 51.2287 20.7992C51.6949 20.5541 52.0608 20.2252 52.3262 19.8124C52.5917 19.3997 52.7245 18.9321 52.7245 18.4097V16.8328C52.595 16.9167 52.4169 16.9941 52.1903 17.065C51.9701 17.1295 51.7208 17.1908 51.4424 17.2488C51.1639 17.3004 50.8855 17.3488 50.6071 17.3939C50.3287 17.4326 50.0761 17.4681 49.8495 17.5004C49.3639 17.5713 48.9397 17.6842 48.5771 17.8389C48.2145 17.9937 47.9328 18.2033 47.7321 18.4678C47.5314 18.7257 47.431 19.0482 47.431 19.4352C47.431 19.9963 47.635 20.4251 48.0429 20.7218C48.4573 21.012 48.9818 21.1571 49.6164 21.1571Z" fill="#F4F3EA" fill-opacity="0.64"/>
<path d="M38.0927 23.7207V8.86143H42.2303V23.7207H38.0927Z" fill="#F4F3EA" fill-opacity="0.64"/>
<path d="M27.8487 24.0013C26.8968 24.0013 26.0486 23.8368 25.3039 23.5079C24.5593 23.1726 23.97 22.6792 23.5362 22.0278C23.1088 21.37 22.8952 20.5509 22.8952 19.5706C22.8952 18.7451 23.0473 18.0518 23.3517 17.4907C23.656 16.9296 24.0704 16.4781 24.5949 16.1363C25.1194 15.7945 25.7151 15.5365 26.382 15.3624C27.0554 15.1883 27.7612 15.0657 28.4994 14.9948C29.3671 14.9045 30.0664 14.8207 30.5974 14.7433C31.1283 14.6594 31.5136 14.5369 31.7532 14.3756C31.9928 14.2144 32.1125 13.9758 32.1125 13.6598V13.6017C32.1125 12.989 31.9183 12.515 31.5298 12.1796C31.1477 11.8443 30.6038 11.6766 29.898 11.6766C29.1534 11.6766 28.5609 11.841 28.1206 12.17C27.6803 12.4924 27.3889 12.8987 27.2465 13.3889L23.4196 13.0793C23.6139 12.1764 23.9959 11.396 24.5658 10.7382C25.1356 10.0739 25.8705 9.56443 26.7705 9.20971C27.6771 8.84855 28.726 8.66797 29.9175 8.66797C30.7463 8.66797 31.5395 8.76471 32.2971 8.95819C33.0612 9.15167 33.7378 9.45156 34.327 9.85787C34.9228 10.2642 35.3922 10.7866 35.7354 11.4251C36.0786 12.0571 36.2502 12.8149 36.2502 13.6985V23.7208H32.3262V21.6602H32.2097C31.9701 22.1245 31.6496 22.5341 31.2481 22.8888C30.8467 23.2371 30.3643 23.5112 29.8009 23.7111C29.2376 23.9046 28.5868 24.0013 27.8487 24.0013ZM29.0336 21.1571C29.6423 21.1571 30.1797 21.0378 30.6459 20.7992C31.1121 20.5541 31.478 20.2252 31.7435 19.8124C32.0089 19.3997 32.1417 18.9321 32.1417 18.4097V16.8328C32.0122 16.9167 31.8341 16.9941 31.6075 17.065C31.3873 17.1295 31.138 17.1908 30.8596 17.2488C30.5812 17.3004 30.3027 17.3488 30.0243 17.3939C29.7459 17.4326 29.4933 17.4681 29.2667 17.5004C28.7811 17.5713 28.357 17.6842 27.9943 17.8389C27.6317 17.9937 27.3501 18.2033 27.1493 18.4678C26.9486 18.7257 26.8482 19.0482 26.8482 19.4352C26.8482 19.9963 27.0522 20.4251 27.4601 20.7218C27.8746 21.012 28.399 21.1571 29.0336 21.1571Z" fill="#F4F3EA" fill-opacity="0.64"/>
<path d="M17.51 23.7207V8.86143H21.6476V23.7207H17.51Z" fill="#F4F3EA" fill-opacity="0.64"/>
<path d="M7.26599 24.0013C6.31415 24.0013 5.4659 23.8368 4.72126 23.5079C3.97662 23.1726 3.38738 22.6792 2.95354 22.0278C2.52618 21.37 2.3125 20.5509 2.3125 19.5706C2.3125 18.7451 2.46467 18.0518 2.769 17.4907C3.07333 16.9296 3.48774 16.4781 4.01223 16.1363C4.53672 15.7945 5.13243 15.5365 5.79937 15.3624C6.47279 15.1883 7.17858 15.0657 7.91675 14.9948C8.78442 14.9045 9.48374 14.8207 10.0147 14.7433C10.5457 14.6594 10.9309 14.5369 11.1705 14.3756C11.4101 14.2144 11.5299 13.9758 11.5299 13.6598V13.6017C11.5299 12.989 11.3356 12.515 10.9471 12.1796C10.5651 11.8443 10.0212 11.6766 9.31538 11.6766C8.57074 11.6766 7.97826 11.841 7.53795 12.17C7.09764 12.4924 6.80626 12.8987 6.66381 13.3889L2.83699 13.0793C3.03124 12.1764 3.41328 11.396 3.98309 10.7382C4.5529 10.0739 5.28783 9.56443 6.18788 9.20971C7.0944 8.84855 8.14338 8.66797 9.33481 8.66797C10.1636 8.66797 10.9568 8.76471 11.7144 8.95819C12.4785 9.15167 13.1551 9.45156 13.7444 9.85787C14.3401 10.2642 14.8096 10.7866 15.1527 11.4251C15.4959 12.0571 15.6675 12.8149 15.6675 13.6985V23.7208H11.7436V21.6602H11.627C11.3874 22.1245 11.0669 22.5341 10.6655 22.8888C10.264 23.2371 9.78159 23.5112 9.21825 23.7111C8.65492 23.9046 8.00416 24.0013 7.26599 24.0013ZM8.45095 21.1571C9.05961 21.1571 9.59705 21.0378 10.0633 20.7992C10.5295 20.5541 10.8953 20.2252 11.1608 19.8124C11.4263 19.3997 11.559 18.9321 11.559 18.4097V16.8328C11.4295 16.9167 11.2515 16.9941 11.0248 17.065C10.8047 17.1295 10.5554 17.1908 10.2769 17.2488C9.99851 17.3004 9.72008 17.3488 9.44165 17.3939C9.16322 17.4326 8.91068 17.4681 8.68405 17.5004C8.19842 17.5713 7.77429 17.6842 7.41169 17.8389C7.04908 17.9937 6.76741 18.2033 6.56668 18.4678C6.36595 18.7257 6.26558 19.0482 6.26558 19.4352C6.26558 19.9963 6.46955 20.4251 6.87748 20.7218C7.29189 21.012 7.81638 21.1571 8.45095 21.1571Z" fill="#F4F3EA" fill-opacity="0.64"/>
<path d="M92.7714 12.5013L91.1489 8.66797H91.8831L92.9767 11.3867L94.0652 8.66797H94.7995L93.1821 12.5013H92.7714ZM90.9692 12.5013V8.66797H91.7239V12.5013H90.9692ZM94.2244 12.5013V8.66797H94.9792V12.5013H94.2244ZM88.4071 12.5013V9.0013H89.1618V12.5013H88.4071ZM87.257 9.32422V8.66797H90.312V9.32422H87.257Z" fill="#F4F3EA" fill-opacity="0.64"/>
</svg>
