<svg width="78" height="32" viewBox="0 0 78 32" fill="none" xmlns="http://www.w3.org/2000/svg">
<path d="M5.35104 9.5925C5.35104 7.2191 7.22868 5.41858 10.1676 5.41858C13.1065 5.41858 14.9025 7.10997 14.9025 9.34697C14.9025 11.3657 13.1881 13.0844 10.7118 14.2029L15.8549 19.9591C16.6441 18.7042 17.2427 17.1765 17.6237 15.4305L19.5558 16.1125C18.9299 18.1586 18.1135 19.9045 17.0523 21.3231L18.168 22.5507C18.8483 23.3146 19.583 23.7511 20.6171 23.7511H21.6511V24.9241H16.6985L15.2835 23.26C13.678 24.5968 11.7459 25.3333 9.5145 25.3333C5.45989 25.3333 2.82031 23.1509 2.82031 20.0682C2.82031 17.3674 4.75237 15.5124 7.55523 14.2029C6.92935 13.5482 5.35104 11.6931 5.35104 9.5925ZM5.65038 19.7681C5.65038 22.087 7.22868 23.8056 9.70499 23.8056C11.4193 23.8056 12.9432 23.1509 14.2222 22.0051L8.42601 15.2123C6.68444 16.1398 5.65038 17.7766 5.65038 19.7681ZM7.99062 9.51066C7.99062 11.2566 9.05189 12.3751 9.84105 13.2208C11.5554 12.2933 12.4262 10.9565 12.4262 9.34697C12.4262 7.81927 11.501 6.86445 10.1948 6.86445C8.88862 6.86445 7.99062 7.90111 7.99062 9.51066Z" fill="#F4F3EA" fill-opacity="0.64"/>
<path d="M25.5108 21.6232C25.5108 23.0963 26.2455 23.7511 27.9327 23.7511H28.8307V24.9241H19.9595V23.7511H20.8575C22.1637 23.7511 22.7351 23.26 22.7351 22.1688V8.55584C22.7351 7.46462 22.1637 6.97357 20.8575 6.97357H19.9595V5.82779H34.5996L35.8514 10.8201H34.7357L34.5724 10.4109C33.8649 8.39216 33.103 7.02813 29.8375 7.02813H27.8238C26.2183 7.02813 25.5108 7.6283 25.5108 8.99233V14.7212H30.2185C31.307 14.7212 31.7968 14.2029 31.7968 13.0026V12.1841H32.9397V18.5951H31.7968V17.7766C31.7968 16.5763 31.307 16.058 30.2185 16.058H25.5108V21.6232Z" fill="#F4F3EA" fill-opacity="0.64"/>
<path d="M40.6414 24.0512C43.036 24.0512 44.5871 21.7323 44.5871 18.0767C44.5871 14.4211 43.036 12.1296 40.6414 12.1296C38.2467 12.1296 36.6956 14.4211 36.6956 18.0767C36.6956 21.7323 38.2467 24.0512 40.6414 24.0512ZM33.8383 18.0767C33.8383 13.821 36.6412 10.8474 40.6414 10.8474C44.6416 10.8474 47.4172 13.821 47.4172 18.0767C47.4172 22.3325 44.6416 25.3333 40.6414 25.3333C36.6412 25.3333 33.8383 22.3325 33.8383 18.0767Z" fill="#F4F3EA" fill-opacity="0.64"/>
<path d="M51.272 22.3052C51.272 23.3146 51.7346 23.8875 52.5509 23.8875H53.4217V24.9241H46.5915V23.8875H47.4623C48.2786 23.8875 48.7412 23.3146 48.7412 22.3052V7.90111C48.7412 6.07332 48.4691 5.93691 46.401 6.1006V5.06394C48.5507 4.84569 49.2855 4.60017 50.129 4H51.272V22.3052Z" fill="#F4F3EA" fill-opacity="0.64"/>
<path d="M64.9865 22.3052C64.9865 23.3146 65.4491 23.8875 66.2654 23.8875H67.1362V24.9241H62.4557V22.6053C61.2584 24.2967 59.5985 25.3333 57.6664 25.3333C54.4281 25.3333 52.3872 22.7417 52.3872 18.104C52.3872 13.6573 54.5914 10.8474 58.1018 10.8474C59.9794 10.8474 61.4761 11.6385 62.4557 13.0844V7.90111C62.4557 6.07332 62.1836 5.93691 60.1155 6.1006V5.06394C62.2652 4.84569 63 4.60017 63.8435 4H64.9865V22.3052ZM55.2445 17.8858C55.2445 21.6232 56.5507 23.5874 58.51 23.5874C60.1427 23.5874 61.5033 22.578 62.4557 20.7229V15.5942C61.9659 13.5482 60.7686 12.4297 59.0542 12.4297C56.7684 12.4297 55.2445 14.2575 55.2445 17.8858Z" fill="#F4F3EA" fill-opacity="0.64"/>
<path d="M67.8539 4.05125H71.0246V4.74453H69.8242V7.9493H69.0543V4.74453H67.8539V4.05125ZM72.1858 7.9493H71.416V4.05125H72.3033L73.4515 6.83744L74.6128 4.05125H75.487V7.9493H74.7172V5.45088L73.6864 7.9493H73.2166L72.1858 5.46397V7.9493Z" fill="#F4F3EA" fill-opacity="0.64"/>
</svg>
