<svg width="32" height="32" viewBox="0 0 32 32" fill="none" xmlns="http://www.w3.org/2000/svg">
<rect width="32" height="32" fill="#B6E400"/>
<rect width="32" height="32" fill="#B6E400"/>
<path d="M19.408 7.14681C19.5029 8.4174 18.8715 9.57579 17.8585 10.2307C17.0456 10.7562 16.2651 11.5607 16.3362 12.5126C16.4264 13.7194 17.7307 14.4696 18.8421 13.9428C19.7111 13.5308 20.0235 12.4793 20.0779 11.5346C20.1367 10.5153 20.6619 9.53343 21.59 8.91547C23.1723 7.86197 25.3263 8.26511 26.4011 9.81593C27.476 11.3667 27.0647 13.478 25.4824 14.5315C24.4028 15.2503 23.0569 15.291 21.9693 14.7515C21.1079 14.3243 20.0171 14.0666 19.2185 14.5983C18.2054 15.2729 18.1955 16.7428 19.2087 17.4174C20 17.9443 21.075 17.6875 21.9278 17.2626C22.8596 16.7982 23.9943 16.751 25.0079 17.2315C26.7299 18.0478 27.4507 20.0778 26.6179 21.7655C25.785 23.4533 23.7139 24.1598 21.992 23.3435C20.8121 22.7842 20.1023 21.6551 20.0402 20.4568C19.9916 19.5199 19.6769 18.4752 18.8152 18.0668C17.7214 17.5482 16.4289 18.2695 16.3402 19.4572C16.2709 20.3839 17.0268 21.1612 17.8231 21.6654C18.7043 22.2234 19.3173 23.1657 19.3998 24.2703C19.5395 26.1401 18.1063 27.7669 16.1986 27.9038C14.2909 28.0408 12.6311 26.636 12.4914 24.7662C12.3953 23.4799 13.0437 22.3085 14.0788 21.6581C14.8777 21.1563 15.6359 20.3743 15.5666 19.4468C15.4786 18.2687 14.2054 17.5391 13.1204 18.0534C12.2748 18.4543 11.9678 19.474 11.9238 20.3936C11.8745 21.4245 11.348 22.4207 10.41 23.0452C8.82775 24.0987 6.67373 23.6956 5.59887 22.1448C4.52401 20.594 4.93533 18.4828 6.51758 17.4293C7.61058 16.7015 8.97642 16.6689 10.0709 17.2294C10.9044 17.6564 11.9594 17.9098 12.7373 17.3918C13.732 16.7295 13.7297 15.2912 12.735 14.6289C11.9583 14.1118 10.9028 14.3597 10.0686 14.7822C9.13305 15.256 7.98934 15.3073 6.96835 14.8233C5.24637 14.007 4.52558 11.9771 5.35842 10.2893C6.19125 8.60154 8.26235 7.89506 9.98433 8.71135C11.1741 9.27535 11.8859 10.4187 11.9376 11.6283C11.9769 12.5489 12.2803 13.5706 13.1266 13.9718C14.2087 14.4847 15.4776 13.7666 15.5654 12.5917L15.5719 12.5055C15.643 11.5533 14.8615 10.7555 14.0485 10.2298C13.1822 9.66965 12.5812 8.73565 12.4996 7.64277C12.3598 5.77297 13.7931 4.14618 15.7008 4.00922C17.6085 3.87227 19.2682 5.27701 19.408 7.14681Z" fill="#3F403C"/>
</svg>
