<svg width="96" height="20" viewBox="0 0 96 20" fill="none" xmlns="http://www.w3.org/2000/svg">
<path d="M1.96568 11.4701V4.71939H0.168557V3.33699L1.96568 3.08355L2.54168 0.065311H4.03928V3.08355H6.57368V4.74243H4.03928V11.401C4.03928 12.3687 4.3388 13.2212 5.65208 13.2212C5.99768 13.2212 6.43544 13.1751 7.03448 13.0368V14.7879C6.50456 14.9031 5.90552 14.9491 5.42168 14.9491C2.93336 14.9491 1.96568 13.2672 1.96568 11.4701ZM7.62236 8.88963C7.62236 5.36451 9.92636 2.87619 13.198 2.87619C16.4928 2.87619 18.7737 5.36451 18.7737 8.88963V9.39651H9.74204C9.90332 11.7005 11.2396 13.106 13.198 13.106C14.7648 13.106 15.9168 12.2765 16.4006 10.848L18.382 11.2628C17.7369 13.4516 15.8016 14.9031 13.198 14.9031C9.92636 14.9031 7.62236 12.4148 7.62236 8.88963ZM13.198 4.67331C11.3779 4.67331 10.0876 5.89443 9.78812 7.89891H16.608C16.3776 5.89443 15.0643 4.67331 13.198 4.67331ZM19.7808 3.08355H21.624C21.7853 3.65955 21.9005 4.23555 21.9696 4.78851C22.7991 3.68259 23.7898 2.89923 25.1952 2.89923L25.4026 4.71939C23.3981 4.69635 21.9927 5.98659 21.9927 8.06019V14.7188H19.9191V6.42435C19.9191 4.78851 19.896 3.95907 19.7808 3.08355ZM25.9917 3.08355H27.8349C27.9962 3.65955 28.1114 4.23555 28.1805 4.78851C29.01 3.68259 30.0007 2.89923 31.4061 2.89923L31.6135 4.71939C29.609 4.69635 28.2036 5.98659 28.2036 8.06019V14.7188H26.13V6.42435C26.13 4.78851 26.1069 3.95907 25.9917 3.08355ZM41.401 14.7188H39.5808C39.4426 14.258 39.3043 13.5668 39.2583 13.106C38.4519 14.1888 37.2999 14.9261 35.7331 14.9261C33.3139 14.9261 31.6551 13.4516 31.6551 11.3549C31.6551 9.25827 33.4522 8.15235 36.4704 7.78371L39.1891 7.48419V6.81603C39.1891 5.54883 38.2445 4.67331 36.8851 4.67331C35.5949 4.67331 34.6272 5.20323 34.2816 6.26307L32.2541 5.96355C32.784 4.07427 34.5581 2.87619 36.9082 2.87619C39.5347 2.87619 41.2627 4.58115 41.2627 7.18467V11.401C41.2627 13.0138 41.3088 13.8432 41.401 14.7188ZM36.0327 13.1751C37.968 13.1751 39.1891 11.8848 39.1891 10.0186V8.93571L36.4935 9.25827C34.8115 9.46563 33.7517 10.1338 33.7517 11.3088C33.7517 12.3917 34.6733 13.1751 36.0327 13.1751ZM43.0068 7.62243V5.91747H58.1901V7.62243H43.0068ZM61.0561 11.4701V4.71939H59.259V3.33699L61.0561 3.08355L61.6321 0.065311H63.1297V3.08355H65.6641V4.74243H63.1297V11.401C63.1297 12.3687 63.4292 13.2212 64.7425 13.2212C65.0881 13.2212 65.5258 13.1751 66.1249 13.0368V14.7879C65.5949 14.9031 64.9959 14.9491 64.5121 14.9491C62.0238 14.9491 61.0561 13.2672 61.0561 11.4701ZM77.6391 8.88963C77.6391 12.4148 75.3351 14.9031 72.0634 14.9031C68.7917 14.9031 66.4877 12.4148 66.4877 8.88963C66.4877 5.34147 68.7917 2.87619 72.0634 2.87619C75.3351 2.87619 77.6391 5.34147 77.6391 8.88963ZM68.5844 8.88963C68.5844 11.4932 69.9437 13.152 72.0634 13.152C74.1831 13.152 75.5655 11.4932 75.5655 8.88963C75.5655 6.30915 74.1831 4.67331 72.0634 4.67331C69.9437 4.67331 68.5844 6.30915 68.5844 8.88963ZM78.7812 3.08355H80.6244C80.7857 3.65955 80.9009 4.23555 80.97 4.78851C81.7994 3.68259 82.7902 2.89923 84.1956 2.89923L84.403 4.71939C82.3985 4.69635 80.993 5.98659 80.993 8.06019V14.7188H78.9194V6.42435C78.9194 4.78851 78.8964 3.95907 78.7812 3.08355ZM88.9319 14.7188L84.37 3.08355H86.5127L89.9227 12.1152L93.3095 3.08355H95.4062L90.5217 15.7095C89.8305 17.5527 89.0011 19.6032 86.2823 19.6032C85.7524 19.6032 85.1303 19.5341 84.5543 19.3728V17.5987C85.2916 17.8291 85.7524 17.8752 86.1441 17.8752C87.6878 17.8752 88.2407 16.608 88.6555 15.433L88.9319 14.7188Z" fill="white"/>
</svg>
