<svg width="256" height="256" viewBox="0 0 256 256" fill="none" xmlns="http://www.w3.org/2000/svg">
<rect width="256" height="256" fill="#B6E400"/>
<rect width="256" height="256" fill="#B6E400"/>
<path d="M150.926 69.1694C151.565 77.7171 147.318 85.5099 140.502 89.9157C135.034 93.4511 129.783 98.863 130.262 105.267C130.869 113.385 139.643 118.432 147.119 114.888C152.966 112.116 155.067 105.042 155.433 98.6872C155.828 91.8304 159.362 85.2249 165.605 81.0677C176.25 73.9805 190.74 76.6926 197.971 87.1253C205.202 97.5581 202.435 111.761 191.791 118.848C184.528 123.684 175.474 123.957 168.157 120.329C162.362 117.454 155.024 115.72 149.652 119.298C142.836 123.836 142.77 133.725 149.586 138.263C154.909 141.807 162.141 140.08 167.878 137.221C174.147 134.097 181.78 133.78 188.599 137.012C200.183 142.504 205.032 156.16 199.429 167.514C193.827 178.868 179.894 183.62 168.31 178.129C160.372 174.366 155.597 166.771 155.179 158.709C154.853 152.406 152.735 145.379 146.939 142.631C139.58 139.143 130.885 143.995 130.288 151.985C129.822 158.219 134.908 163.448 140.264 166.84C146.192 170.594 150.316 176.933 150.871 184.364C151.811 196.942 142.17 207.886 129.336 208.808C116.503 209.729 105.337 200.279 104.397 187.7C103.75 179.046 108.112 171.166 115.076 166.791C120.45 163.415 125.551 158.154 125.085 151.915C124.492 143.989 115.928 139.081 108.628 142.541C102.94 145.238 100.874 152.098 100.578 158.284C100.246 165.219 96.7045 171.921 90.3945 176.123C79.7503 183.21 65.2597 180.498 58.0288 170.065C50.7979 159.632 53.565 145.429 64.2092 138.342C71.5621 133.446 80.7504 133.227 88.1133 136.998C93.7208 139.87 100.818 141.575 106.051 138.09C112.743 133.635 112.727 123.959 106.035 119.504C100.811 116.025 93.7095 117.693 88.0981 120.535C81.8042 123.722 74.1101 124.067 67.2417 120.811C55.6574 115.32 50.8084 101.664 56.4112 90.3099C62.0139 78.9558 75.9467 74.2031 87.5309 79.6946C95.5348 83.4887 100.323 91.1805 100.671 99.3177C100.935 105.511 102.977 112.384 108.67 115.083C115.949 118.533 124.486 113.703 125.076 105.799L125.12 105.219C125.598 98.8131 120.341 93.4464 114.871 89.9095C109.044 86.1413 105.001 79.858 104.452 72.5059C103.512 59.9273 113.153 48.9834 125.987 48.062C138.821 47.1407 149.986 56.5908 150.926 69.1694Z" fill="#3F403C"/>
</svg>
