<svg width="100" height="32" viewBox="0 0 100 32" fill="none" xmlns="http://www.w3.org/2000/svg">
<path d="M82.2342 24.7057C80.6693 24.7057 79.2851 24.3618 78.0814 23.6739C76.8928 22.986 75.9599 22.0364 75.2828 20.8251C74.6208 19.5988 74.2898 18.1856 74.2898 16.5855C74.2898 14.9854 74.6208 13.5797 75.2828 12.3684C75.9599 11.1421 76.8928 10.185 78.0814 9.49711C79.2851 8.80921 80.6693 8.46526 82.2342 8.46526C83.814 8.46526 85.1982 8.80921 86.3869 9.49711C87.5755 10.185 88.5009 11.1421 89.1629 12.3684C89.84 13.5797 90.1785 14.9854 90.1785 16.5855C90.1785 18.1856 89.84 19.5988 89.1629 20.8251C88.5009 22.0364 87.5755 22.986 86.3869 23.6739C85.1982 24.3618 83.814 24.7057 82.2342 24.7057ZM82.2567 21.8794C83.2197 21.8794 84.0472 21.67 84.7393 21.2513C85.4465 20.8176 85.9957 20.2045 86.3869 19.4119C86.7781 18.6193 86.9737 17.6772 86.9737 16.5855C86.9737 15.4938 86.7781 14.5517 86.3869 13.7591C85.9957 12.9665 85.4465 12.3609 84.7393 11.9422C84.0472 11.5085 83.2197 11.2916 82.2567 11.2916C81.2938 11.2916 80.4587 11.5085 79.7515 11.9422C79.0444 12.3609 78.4952 12.9665 78.104 13.7591C77.7128 14.5517 77.5172 15.4938 77.5172 16.5855C77.5172 17.6772 77.7128 18.6193 78.104 19.4119C78.4952 20.2045 79.0444 20.8176 79.7515 21.2513C80.4587 21.67 81.2938 21.8794 82.2567 21.8794Z" fill="#F4F3EA" fill-opacity="0.64"/>
<path d="M66.5241 24.7057C64.9293 24.7057 63.5525 24.3693 62.394 23.6963C61.2505 23.0084 60.3703 22.0588 59.7534 20.8475C59.1365 19.6212 58.828 18.208 58.828 16.6079C58.828 15.0078 59.1365 13.5946 59.7534 12.3684C60.3703 11.1421 61.2505 10.185 62.394 9.49711C63.5525 8.80921 64.9293 8.46526 66.5241 8.46526C68.4501 8.46526 70.0299 8.9438 71.2637 9.90088C72.4975 10.858 73.2573 12.2039 73.5432 13.9386H70.0675C69.887 13.1011 69.4882 12.4581 68.8713 12.0094C68.2695 11.5459 67.4721 11.3141 66.479 11.3141C65.5461 11.3141 64.7487 11.5309 64.0867 11.9646C63.4246 12.3833 62.9131 12.989 62.552 13.7815C62.2059 14.5741 62.0329 15.5163 62.0329 16.6079C62.0329 17.6996 62.2059 18.6417 62.552 19.4343C62.9131 20.2119 63.4246 20.8176 64.0867 21.2513C64.7487 21.67 65.5461 21.8794 66.479 21.8794C67.4721 21.8794 68.2695 21.67 68.8713 21.2513C69.4732 20.8176 69.8644 20.2045 70.045 19.4119H73.5206C73.2347 21.0718 72.4749 22.3728 71.2411 23.315C70.0224 24.2421 68.4501 24.7057 66.5241 24.7057Z" fill="#F4F3EA" fill-opacity="0.64"/>
<path d="M44.1037 24.4365V8.73443H47.2634L54.4179 19.3894V8.73443H57.5776V24.4365H54.4179L47.2634 13.8264V24.4365H44.1037Z" fill="#F4F3EA" fill-opacity="0.64"/>
<path d="M28.3316 24.4365L34.0867 8.73443H37.6753L43.453 24.4365H40.1127L35.2378 10.4392H36.5242L31.6493 24.4365H28.3316ZM30.9948 20.9148L31.8298 18.4697H39.9548L40.7898 20.9148H30.9948Z" fill="#F4F3EA" fill-opacity="0.64"/>
<path d="M15.3622 24.4365V8.73443H22.0653C23.3442 8.73443 24.3975 8.95127 25.225 9.38495C26.0676 9.80367 26.692 10.3869 27.0983 11.1346C27.5196 11.8674 27.7302 12.6973 27.7302 13.6245C27.7302 14.3423 27.5722 15.0078 27.2562 15.6209C26.9403 16.2191 26.519 16.735 25.9924 17.1687C26.5641 17.5575 27.0005 18.0585 27.3014 18.6716C27.6174 19.2848 27.7904 19.9876 27.8205 20.7802L28.001 24.4365H24.909L24.6608 20.7802C24.6307 20.2568 24.5254 19.8306 24.3448 19.5016C24.1793 19.1576 23.916 18.9034 23.5549 18.7389C23.1938 18.5744 22.7048 18.4922 22.0879 18.4922H18.5219V24.4365H15.3622ZM18.5219 15.9574H21.8622C22.7951 15.9574 23.4721 15.748 23.8934 15.3293C24.3147 14.9106 24.5254 14.3423 24.5254 13.6245C24.5254 12.8918 24.3147 12.3235 23.8934 11.9197C23.4721 11.501 22.7951 11.2916 21.8622 11.2916H18.5219V15.9574Z" fill="#F4F3EA" fill-opacity="0.64"/>
<path d="M4 24.4365V8.73443H14.3593V11.2692H7.1597V15.3293H12.9149V17.7968H7.1597V24.4365H4Z" fill="#F4F3EA" fill-opacity="0.64"/>
<path d="M93.6866 12.6712C93.2428 12.6712 92.8441 12.574 92.4905 12.3796C92.1444 12.1777 91.8698 11.901 91.6667 11.5496C91.4711 11.1982 91.3733 10.8019 91.3733 10.3607C91.3733 9.90462 91.4711 9.50459 91.6667 9.16064C91.8698 8.81669 92.1444 8.54377 92.4905 8.34189C92.8441 8.14 93.2428 8.03906 93.6866 8.03906C94.1456 8.03906 94.548 8.14 94.8941 8.34189C95.2402 8.54377 95.511 8.81669 95.7066 9.16064C95.9022 9.50459 96 9.90462 96 10.3607C96 10.8019 95.9022 11.1982 95.7066 11.5496C95.511 11.901 95.2402 12.1777 94.8941 12.3796C94.548 12.574 94.1456 12.6712 93.6866 12.6712ZM93.6866 12.2001C94.2358 12.2001 94.6722 12.0281 94.9957 11.6842C95.3267 11.3402 95.4922 10.8991 95.4922 10.3607C95.4922 9.8149 95.3267 9.37374 94.9957 9.03727C94.6722 8.69332 94.2358 8.52134 93.6866 8.52134C93.1375 8.52134 92.6974 8.69332 92.3663 9.03727C92.0428 9.37374 91.8811 9.8149 91.8811 10.3607C91.8811 10.8991 92.0428 11.3402 92.3663 11.6842C92.6974 12.0281 93.1375 12.2001 93.6866 12.2001ZM92.75 11.5384V9.13821H93.8898C94.138 9.13821 94.3374 9.20551 94.4879 9.34009C94.6383 9.47468 94.7135 9.65414 94.7135 9.87845C94.7135 10.1252 94.627 10.3196 94.454 10.4617C94.5443 10.5215 94.6045 10.6 94.6346 10.6972C94.6722 10.7944 94.6947 10.8991 94.7023 11.0112L94.7474 11.5384H94.1719L94.1267 11.1458C94.1042 10.9365 94.0703 10.7981 94.0252 10.7309C93.9876 10.6636 93.8898 10.6299 93.7318 10.6299H93.3707V11.5384H92.75ZM93.3707 10.1701H93.8108C93.8935 10.1701 93.9612 10.1514 94.0139 10.114C94.0741 10.0691 94.1042 10.0018 94.1042 9.9121C94.1042 9.82237 94.0741 9.75882 94.0139 9.72143C93.9612 9.68405 93.8935 9.66535 93.8108 9.66535H93.3707V10.1701Z" fill="#F4F3EA" fill-opacity="0.64"/>
</svg>
