<svg width="91" height="28" viewBox="0 0 91 28" fill="none" xmlns="http://www.w3.org/2000/svg">
<g clip-path="url(#clip0_28164_1793)">
<path d="M73.3451 22.1259C71.8891 22.1259 70.6011 21.8039 69.4811 21.1599C68.3751 20.5159 67.5071 19.6269 66.8771 18.4929C66.2611 17.3449 65.9531 16.0219 65.9531 14.5239C65.9531 13.0259 66.2611 11.7099 66.8771 10.5759C67.5071 9.42787 68.3751 8.53188 69.4811 7.88788C70.6011 7.24387 71.8891 6.92188 73.3451 6.92188C74.8151 6.92188 76.1031 7.24387 77.2091 7.88788C78.3151 8.53188 79.1761 9.42787 79.7921 10.5759C80.4221 11.7099 80.7371 13.0259 80.7371 14.5239C80.7371 16.0219 80.4221 17.3449 79.7921 18.4929C79.1761 19.6269 78.3151 20.5159 77.2091 21.1599C76.1031 21.8039 74.8151 22.1259 73.3451 22.1259ZM73.3661 19.4799C74.2621 19.4799 75.0321 19.2839 75.6761 18.8919C76.3341 18.4859 76.8451 17.9119 77.2091 17.1699C77.5731 16.4279 77.7551 15.5459 77.7551 14.5239C77.7551 13.5019 77.5731 12.6199 77.2091 11.8779C76.8451 11.1359 76.3341 10.5689 75.6761 10.1769C75.0321 9.77087 74.2621 9.56787 73.3661 9.56787C72.4701 9.56787 71.6931 9.77087 71.0351 10.1769C70.3771 10.5689 69.8661 11.1359 69.5021 11.8779C69.1381 12.6199 68.9561 13.5019 68.9561 14.5239C68.9561 15.5459 69.1381 16.4279 69.5021 17.1699C69.8661 17.9119 70.3771 18.4859 71.0351 18.8919C71.6931 19.2839 72.4701 19.4799 73.3661 19.4799Z" fill="#F4F3EA"/>
<path d="M58.7235 22.1259C57.2395 22.1259 55.9585 21.8109 54.8805 21.1809C53.8165 20.5369 52.9975 19.6479 52.4235 18.5139C51.8495 17.3659 51.5625 16.0429 51.5625 14.5449C51.5625 13.0469 51.8495 11.7239 52.4235 10.5759C52.9975 9.42787 53.8165 8.53188 54.8805 7.88788C55.9585 7.24387 57.2395 6.92188 58.7235 6.92188C60.5155 6.92188 61.9855 7.36988 63.1335 8.26588C64.2815 9.16187 64.9885 10.4219 65.2545 12.0459H62.0205C61.8525 11.2619 61.4815 10.6599 60.9075 10.2399C60.3475 9.80587 59.6055 9.58887 58.6815 9.58887C57.8135 9.58887 57.0715 9.79187 56.4555 10.1979C55.8395 10.5899 55.3635 11.1569 55.0275 11.8989C54.7055 12.6409 54.5445 13.5229 54.5445 14.5449C54.5445 15.5669 54.7055 16.4489 55.0275 17.1909C55.3635 17.9189 55.8395 18.4859 56.4555 18.8919C57.0715 19.2839 57.8135 19.4799 58.6815 19.4799C59.6055 19.4799 60.3475 19.2839 60.9075 18.8919C61.4675 18.4859 61.8315 17.9119 61.9995 17.1699H65.2335C64.9675 18.7239 64.2605 19.9419 63.1125 20.8239C61.9785 21.6919 60.5155 22.1259 58.7235 22.1259Z" fill="#F4F3EA"/>
<path d="M37.8672 21.8758V7.17578H40.8072L47.4642 17.1508V7.17578H50.4042V21.8758H47.4642L40.8072 11.9428V21.8758H37.8672Z" fill="#F4F3EA"/>
<path d="M23.1953 21.8758L28.5503 7.17578H31.8893L37.2653 21.8758H34.1573L29.6213 8.77178H30.8183L26.2823 21.8758H23.1953ZM25.6733 18.5788L26.4503 16.2898H34.0103L34.7873 18.5788H25.6733Z" fill="#F4F3EA"/>
<path d="M11.125 21.8758V7.17578H17.362C18.552 7.17578 19.532 7.37878 20.302 7.78478C21.086 8.17678 21.667 8.72278 22.045 9.42278C22.437 10.1088 22.633 10.8858 22.633 11.7538C22.633 12.4258 22.486 13.0488 22.192 13.6228C21.898 14.1828 21.506 14.6658 21.016 15.0718C21.548 15.4358 21.954 15.9048 22.234 16.4788C22.528 17.0528 22.689 17.7108 22.717 18.4528L22.885 21.8758H20.008L19.777 18.4528C19.749 17.9628 19.651 17.5638 19.483 17.2558C19.329 16.9338 19.084 16.6958 18.748 16.5418C18.412 16.3878 17.957 16.3108 17.383 16.3108H14.065V21.8758H11.125ZM14.065 13.9378H17.173C18.041 13.9378 18.671 13.7418 19.063 13.3498C19.455 12.9578 19.651 12.4258 19.651 11.7538C19.651 11.0678 19.455 10.5358 19.063 10.1578C18.671 9.76578 18.041 9.56978 17.173 9.56978H14.065V13.9378Z" fill="#F4F3EA"/>
<path d="M0.554688 21.8758V7.17578H10.1937V9.54878H3.49469V13.3498H8.84969V15.6598H3.49469V21.8758H0.554688Z" fill="#F4F3EA"/>
<path d="M84.0041 10.8599C83.5911 10.8599 83.2201 10.7689 82.8911 10.5869C82.5691 10.3979 82.3136 10.1389 82.1246 9.80994C81.9426 9.48094 81.8516 9.10994 81.8516 8.69694C81.8516 8.26994 81.9426 7.89544 82.1246 7.57344C82.3136 7.25144 82.5691 6.99594 82.8911 6.80694C83.2201 6.61794 83.5911 6.52344 84.0041 6.52344C84.4311 6.52344 84.8056 6.61794 85.1276 6.80694C85.4496 6.99594 85.7016 7.25144 85.8836 7.57344C86.0656 7.89544 86.1566 8.26994 86.1566 8.69694C86.1566 9.10994 86.0656 9.48094 85.8836 9.80994C85.7016 10.1389 85.4496 10.3979 85.1276 10.5869C84.8056 10.7689 84.4311 10.8599 84.0041 10.8599ZM84.0041 10.4189C84.5151 10.4189 84.9211 10.2579 85.2221 9.93594C85.5301 9.61394 85.6841 9.20094 85.6841 8.69694C85.6841 8.18594 85.5301 7.77294 85.2221 7.45794C84.9211 7.13594 84.5151 6.97494 84.0041 6.97494C83.4931 6.97494 83.0836 7.13594 82.7756 7.45794C82.4746 7.77294 82.3241 8.18594 82.3241 8.69694C82.3241 9.20094 82.4746 9.61394 82.7756 9.93594C83.0836 10.2579 83.4931 10.4189 84.0041 10.4189ZM83.1326 9.79944V7.55244H84.1931C84.4241 7.55244 84.6096 7.61544 84.7496 7.74144C84.8896 7.86744 84.9596 8.03544 84.9596 8.24544C84.9596 8.47644 84.8791 8.65844 84.7181 8.79144C84.8021 8.84744 84.8581 8.92094 84.8861 9.01194C84.9211 9.10294 84.9421 9.20094 84.9491 9.30594L84.9911 9.79944H84.4556L84.4136 9.43194C84.3926 9.23594 84.3611 9.10644 84.3191 9.04344C84.2841 8.98044 84.1931 8.94894 84.0461 8.94894H83.7101V9.79944H83.1326ZM83.7101 8.51844H84.1196C84.1966 8.51844 84.2596 8.50094 84.3086 8.46594C84.3646 8.42394 84.3926 8.36094 84.3926 8.27694C84.3926 8.19294 84.3646 8.13344 84.3086 8.09844C84.2596 8.06344 84.1966 8.04594 84.1196 8.04594H83.7101V8.51844Z" fill="#F4F3EA"/>
</g>
<defs>
<clipPath id="clip0_28164_1793">
<rect width="86.625" height="28" fill="white"/>
</clipPath>
</defs>
</svg>
