<svg width="123" height="32" viewBox="0 0 123 32" fill="none" xmlns="http://www.w3.org/2000/svg">
<path d="M101.63 11.6366C101.805 12.245 101.924 12.8366 101.987 13.4112C102.448 12.8197 103.005 12.3465 103.657 11.9915C104.309 11.6197 105.016 11.4338 105.779 11.4338C106.415 11.4338 106.987 11.5521 107.496 11.7887C108.021 12.0084 108.466 12.3211 108.832 12.7267C109.213 13.1324 109.499 13.6309 109.69 14.2225C109.897 14.7971 110 15.4394 110 16.1492V24.4392H107.83V16.3013C107.83 15.4056 107.607 14.6957 107.162 14.1718C106.717 13.6478 106.121 13.3859 105.374 13.3859C104.881 13.3859 104.428 13.4704 104.014 13.6394C103.601 13.8084 103.243 14.045 102.941 14.3492C102.655 14.6535 102.425 15.0253 102.25 15.4647C102.091 15.8872 102.011 16.3689 102.011 16.9098V24.4392H99.865V15.3126C99.865 14.4168 99.8571 13.6985 99.8412 13.1577C99.8253 12.6169 99.7855 12.1098 99.7219 11.6366H101.63Z" fill="#F4F3EA" fill-opacity="0.64"/>
<path d="M95.8422 24.4398C95.7627 24.1863 95.6912 23.8905 95.6276 23.5525C95.5799 23.2145 95.5401 22.9187 95.5083 22.6652C95.095 23.2567 94.5863 23.7384 93.9821 24.1102C93.378 24.4821 92.6705 24.668 91.8597 24.668C91.2397 24.668 90.6673 24.575 90.1427 24.3891C89.618 24.1863 89.1729 23.9159 88.8072 23.5778C88.4416 23.2229 88.1554 22.8088 87.9487 22.3356C87.742 21.8455 87.6387 21.3131 87.6387 20.7385C87.6387 19.5723 88.0759 18.6765 88.9503 18.0512C89.8247 17.4258 91.0489 17.0118 92.6228 16.8089L95.4368 16.4794V15.7442C95.4368 15.0343 95.2142 14.4681 94.7691 14.0456C94.3398 13.6062 93.7675 13.3865 93.0521 13.3865C92.3843 13.3865 91.812 13.5301 91.3351 13.8174C90.8581 14.1048 90.5322 14.5442 90.3573 15.1357L88.2587 14.8062C88.529 13.7583 89.0934 12.9301 89.9519 12.3217C90.8104 11.7133 91.8517 11.409 93.0759 11.409C93.7595 11.409 94.3796 11.5273 94.936 11.764C95.4924 11.9837 95.9614 12.3048 96.343 12.7273C96.7405 13.1329 97.0425 13.6315 97.2492 14.2231C97.4718 14.7977 97.5831 15.4399 97.5831 16.1498V20.7892C97.5831 21.6849 97.591 22.3948 97.6069 22.9187C97.6387 23.4426 97.6785 23.9497 97.7262 24.4398H95.8422ZM92.1697 22.7412C93.1713 22.7412 93.9662 22.4201 94.5544 21.7779C95.1427 21.1356 95.4368 20.299 95.4368 19.2681V18.0765L92.6467 18.4315C91.7723 18.5498 91.0807 18.7948 90.5719 19.1667C90.0632 19.5385 89.8088 20.0455 89.8088 20.6878C89.8088 21.2793 90.0235 21.7694 90.4527 22.1582C90.882 22.5469 91.4543 22.7412 92.1697 22.7412Z" fill="#F4F3EA" fill-opacity="0.64"/>
<path d="M78.4103 24.4398H76.2641V16.3019C76.2641 15.3047 76.0256 14.5695 75.5487 14.0963C75.0876 13.6062 74.5232 13.3611 73.8555 13.3611C73.4739 13.3611 73.1003 13.4372 72.7347 13.5893C72.369 13.7414 72.0431 13.9696 71.7569 14.2738C71.4866 14.578 71.2641 14.9498 71.0892 15.3892C70.9143 15.8287 70.8269 16.3357 70.8269 16.9103V24.4398H68.6806V15.3132C68.6806 14.4174 68.6727 13.6991 68.6568 13.1583C68.6409 12.6175 68.6011 12.1104 68.5375 11.6372H70.4453C70.6202 12.2456 70.7394 12.8372 70.803 13.4118C71.3118 12.7527 71.8841 12.2541 72.52 11.9161C73.1719 11.578 73.8316 11.409 74.4994 11.409C75.2625 11.409 75.9541 11.6203 76.5741 12.0428C77.21 12.4485 77.687 13.0569 78.0049 13.8681C78.5137 13.0231 79.1099 12.4062 79.7935 12.0175C80.4771 11.6118 81.2243 11.409 82.0351 11.409C82.5916 11.409 83.1083 11.5189 83.5852 11.7386C84.0622 11.9414 84.4755 12.2456 84.8253 12.6513C85.1909 13.0569 85.4771 13.5555 85.6838 14.147C85.8905 14.7217 85.9938 15.3892 85.9938 16.1498V24.4398H83.8475V16.3019C83.8475 15.8118 83.7839 15.3808 83.6567 15.009C83.5296 14.6371 83.3547 14.3329 83.1321 14.0963C82.9095 13.8428 82.6472 13.6569 82.3452 13.5386C82.059 13.4203 81.7569 13.3611 81.439 13.3611C81.0574 13.3611 80.6838 13.4372 80.3181 13.5893C79.9525 13.7414 79.6265 13.9696 79.3404 14.2738C79.0701 14.578 78.8475 14.9498 78.6727 15.3892C78.4978 15.8287 78.4103 16.3357 78.4103 16.9103V24.4398Z" fill="#F4F3EA" fill-opacity="0.64"/>
<path d="M64.5983 24.4394C64.5188 24.1521 64.4472 23.8563 64.3837 23.5521C64.336 23.2479 64.2962 22.9521 64.2644 22.6648C63.8034 23.2563 63.2469 23.738 62.5951 24.1098C61.9433 24.4817 61.2358 24.6676 60.4727 24.6676C59.8368 24.6676 59.2565 24.5577 58.7318 24.338C58.2231 24.1014 57.7779 23.7803 57.3964 23.3746C57.0307 22.9521 56.7445 22.4535 56.5379 21.8789C56.3471 21.2873 56.2517 20.6367 56.2517 19.9268V11.6368H58.398V19.8C58.398 20.6789 58.6205 21.3888 59.0657 21.9296C59.5267 22.4535 60.1229 22.7155 60.8542 22.7155C61.8558 22.7155 62.6666 22.3944 63.2867 21.7521C63.9067 21.093 64.2167 20.231 64.2167 19.1663V11.6368H66.3868V20.7634C66.3868 21.2197 66.3868 21.6254 66.3868 21.9803C66.3868 22.3183 66.3948 22.631 66.4107 22.9183C66.4266 23.2056 66.4425 23.476 66.4584 23.7296C66.4743 23.9662 66.4981 24.2028 66.5299 24.4394H64.5983Z" fill="#F4F3EA" fill-opacity="0.64"/>
<path d="M40.5762 6.66797H42.8179V14.4509H51.6176V6.66797H53.8831V24.4395H51.6176V16.4791H42.8179V24.4395H40.5762V6.66797Z" fill="#F4F3EA" fill-opacity="0.64"/>
<path d="M34.9294 24.4397V21.9552H37.5764V24.4397H34.9294ZM34.9294 15.668V13.1835H37.5764V15.668H34.9294Z" fill="#F4F3EA" fill-opacity="0.64"/>
<path d="M28.596 11.6366C28.7549 12.2619 28.8742 12.8873 28.9537 13.5126C29.3829 12.9042 29.8599 12.4056 30.3845 12.0169C30.9251 11.6282 31.561 11.4338 32.2923 11.4338L32.5069 13.4366C31.4576 13.4197 30.6071 13.7408 29.9553 14.3999C29.3034 15.0591 28.9775 15.9633 28.9775 17.1126V24.4392H26.8313V15.3126C26.8313 14.4168 26.8233 13.6985 26.8074 13.1577C26.7915 12.6169 26.7518 12.1098 26.6882 11.6366H28.596Z" fill="#F4F3EA" fill-opacity="0.64"/>
<path d="M25.0292 18.0255C25.0292 18.9889 24.8862 19.8762 24.6 20.6875C24.3138 21.4987 23.9164 22.2001 23.4076 22.7916C22.8989 23.3663 22.2868 23.8226 21.5714 24.1606C20.8718 24.4818 20.1008 24.6423 19.2582 24.6423C18.4156 24.6423 17.6366 24.4818 16.9211 24.1606C16.2216 23.8226 15.6175 23.3663 15.1087 22.7916C14.6 22.2001 14.2025 21.4987 13.9164 20.6875C13.6302 19.8762 13.4871 18.9889 13.4871 18.0255C13.4871 17.0453 13.6302 16.1495 13.9164 15.3382C14.2025 14.527 14.6 13.834 15.1087 13.2594C15.6175 12.6679 16.2216 12.2115 16.9211 11.8904C17.6366 11.5693 18.4156 11.4087 19.2582 11.4087C20.1008 11.4087 20.8718 11.5693 21.5714 11.8904C22.2868 12.2115 22.8989 12.6679 23.4076 13.2594C23.9164 13.834 24.3138 14.527 24.6 15.3382C24.8862 16.1495 25.0292 17.0453 25.0292 18.0255ZM15.6572 18.0255C15.6572 19.4621 15.9831 20.6029 16.635 21.448C17.2868 22.2931 18.1612 22.7156 19.2582 22.7156C20.3552 22.7156 21.2296 22.2931 21.8814 21.448C22.5491 20.6029 22.883 19.4621 22.883 18.0255C22.883 16.6058 22.5491 15.4819 21.8814 14.6538C21.2296 13.8087 20.3552 13.3862 19.2582 13.3862C18.1612 13.3862 17.2868 13.8087 16.635 14.6538C15.9831 15.4819 15.6572 16.6058 15.6572 18.0255Z" fill="#F4F3EA" fill-opacity="0.64"/>
<path d="M1.21875 6.66797H12.1408V8.6961H3.4604V14.4509H11.6877V16.4791H3.4604V24.4395H1.21875V6.66797Z" fill="#F4F3EA" fill-opacity="0.64"/>
<path d="M115.642 6.69332V7.59509H114.142V11.7637H113.18V7.59509H111.68V6.69332H115.642ZM116.131 11.7637V6.69332H117.24L118.675 10.3174L120.126 6.69332H121.219V11.7637H120.257V8.51388L118.969 11.7637H118.382L117.093 8.53089V11.7637H116.131Z" fill="#F4F3EA" fill-opacity="0.64"/>
</svg>
