<svg width="127" height="28" viewBox="0 0 127 28" fill="none" xmlns="http://www.w3.org/2000/svg">
<path d="M114.654 5.71484H116.745V21.4948H114.654V5.71484ZM111.045 21.7148C109.533 21.7148 108.345 21.2233 107.479 20.2403C106.628 19.2573 106.203 17.812 106.203 15.9047C106.203 13.9533 106.636 12.5007 107.501 11.547C108.382 10.5787 109.563 10.0945 111.045 10.0945C112.057 10.0945 112.879 10.3512 113.509 10.8648C114.155 11.3636 114.625 12.0532 114.918 12.9336C115.211 13.7992 115.358 14.7896 115.358 15.9047C115.358 17.0197 115.211 18.0175 114.918 18.8978C114.625 19.7634 114.155 20.453 113.509 20.9666C112.879 21.4654 112.057 21.7148 111.045 21.7148ZM111.529 19.9542C112.629 19.9542 113.421 19.6021 113.906 18.8978C114.404 18.1935 114.654 17.1958 114.654 15.9047C114.654 14.6135 114.404 13.6158 113.906 12.9115C113.421 12.2073 112.629 11.8551 111.529 11.8551C110.384 11.8551 109.555 12.2073 109.042 12.9115C108.543 13.6158 108.293 14.6135 108.293 15.9047C108.293 17.1958 108.543 18.1935 109.042 18.8978C109.555 19.6021 110.384 19.9542 111.529 19.9542Z" fill="#1A1A17"/>
<path d="M97.3203 21.4947H95.2295V10.3365H97.3203V11.9431C97.6724 11.4003 98.0979 10.9601 98.5968 10.6226C99.0956 10.2705 99.7706 10.0944 100.622 10.0944C101.825 10.0944 102.778 10.4319 103.483 11.1068C104.202 11.7671 104.561 12.9042 104.561 14.5181V21.4947H102.47V14.5841C102.47 13.6158 102.265 12.9262 101.854 12.5154C101.458 12.0899 100.864 11.8771 100.071 11.8771C99.2057 11.8771 98.5308 12.1192 98.0466 12.6034C97.5624 13.0729 97.3203 13.8432 97.3203 14.9143V21.4947Z" fill="#1A1A17"/>
<path d="M92.9078 10.3366V21.4948H90.817V10.3366H92.9078ZM90.707 5.71484H93.0178V8.04772H90.707V5.71484Z" fill="#1A1A17"/>
<path d="M72.8845 10.3368H74.9753L74.9533 11.9214C75.7163 10.7183 76.758 10.1167 78.0785 10.1167C79.7658 10.1167 80.8442 10.8283 81.3137 12.2515H81.4017C82.1207 10.8283 83.2504 10.1167 84.791 10.1167C85.4953 10.1167 86.1262 10.2561 86.6837 10.5348C87.2559 10.8136 87.7034 11.2758 88.0262 11.9214C88.349 12.5523 88.5104 13.4179 88.5104 14.5183V21.495H86.4196V14.5844C86.4196 13.6013 86.2362 12.9117 85.8694 12.5156C85.5026 12.1048 84.9304 11.8994 84.1528 11.8994C83.3898 11.8994 82.7956 12.1341 82.3701 12.6036C81.9446 13.0731 81.7318 13.8434 81.7318 14.9145V21.495H79.6631V14.5844C79.6631 13.5867 79.4797 12.8897 79.1129 12.4936C78.7461 12.0974 78.1959 11.8994 77.4622 11.8994C76.6553 11.8994 76.0317 12.1341 75.5915 12.6036C75.166 13.0731 74.9533 13.8434 74.9533 14.9145L74.9753 21.495H72.8845V10.3368Z" fill="#1A1A17"/>
<path d="M68.3055 21.4948H66.2148V10.3366H68.3055V12.2513C68.8631 10.9748 69.8314 10.3366 71.2106 10.3366H72.179V12.0973H70.8805C69.1639 12.0973 68.3055 13.0363 68.3055 14.9143V21.4948Z" fill="#1A1A17"/>
<path d="M55.2772 15.0023H62.4959C62.4812 13.8872 62.2171 13.0802 61.7036 12.5814C61.2048 12.0679 60.4638 11.8111 59.4808 11.8111C58.3657 11.8111 57.5514 12.1485 57.0379 12.8235C56.5243 13.4837 56.2676 14.4888 56.2676 15.8386C56.2676 17.2178 56.517 18.2595 57.0159 18.9638C57.5294 19.6534 58.4024 19.9982 59.6348 19.9982C60.4712 19.9982 61.0727 19.8734 61.4395 19.624C61.8063 19.3599 62.0631 19.0005 62.2098 18.5456H64.3886C64.1832 19.4846 63.677 20.2476 62.8701 20.8345C62.0631 21.4214 60.9847 21.7148 59.6348 21.7148C57.8448 21.7148 56.4877 21.2086 55.5633 20.1962C54.639 19.1692 54.1768 17.7386 54.1768 15.9046C54.1768 14.0266 54.639 12.5887 55.5633 11.591C56.4877 10.5933 57.7935 10.0944 59.4808 10.0944C60.4198 10.0944 61.2708 10.2852 62.0337 10.6667C62.7967 11.0481 63.4056 11.6644 63.8604 12.5154C64.3299 13.3517 64.5647 14.4668 64.5647 15.8606V16.5429H55.2552L55.2772 15.0023Z" fill="#1A1A17"/>
<path d="M50.0307 21.4948H47.8959L43.6263 10.3366H45.7831L48.9083 19.272H49.0183L52.1875 10.3366H54.3223L50.0307 21.4948Z" fill="#1A1A17"/>
<path d="M34 5.93501H43.4856V7.7617H36.1788V12.7796H42.9794V14.5843H36.1788V19.6682H43.5956V21.4948H34V5.93501Z" fill="#1A1A17"/>
<path d="M15.0629 4.78984C15.1621 6.11819 14.502 7.32923 13.443 8.01393C12.5931 8.56335 11.7771 9.40438 11.8515 10.3995C11.9458 11.6612 13.3094 12.4455 14.4713 11.8947C15.3798 11.464 15.7064 10.3647 15.7633 9.37706C15.8247 8.31148 16.3738 7.28495 17.3441 6.6389C18.9983 5.53751 21.2502 5.95898 22.3739 7.58029C23.4976 9.20159 23.0676 11.4088 21.4134 12.5102C20.2847 13.2617 18.8777 13.3042 17.7407 12.7402C16.84 12.2936 15.6997 12.0241 14.8648 12.58C13.8056 13.2853 13.7953 14.8221 14.8545 15.5273C15.6819 16.0781 16.8057 15.8097 17.6973 15.3654C18.6714 14.8799 19.8576 14.8306 20.9174 15.333C22.7176 16.1864 23.4712 18.3086 22.6005 20.0731C21.7298 21.8376 19.5646 22.5761 17.7643 21.7227C16.5308 21.138 15.7888 19.9577 15.7238 18.7048C15.673 17.7253 15.344 16.6332 14.4432 16.2061C13.2996 15.6641 11.9484 16.4181 11.8556 17.6598C11.7832 18.6286 12.5735 19.4412 13.4059 19.9684C14.3272 20.5518 14.968 21.5369 15.0543 22.6917C15.2004 24.6464 13.7021 26.3472 11.7076 26.4904C9.71323 26.6335 7.97802 25.1649 7.83193 23.2102C7.73143 21.8653 8.40928 20.6407 9.49151 19.9608C10.3266 19.4361 11.1194 18.6186 11.0469 17.6489C10.9549 16.4172 9.62387 15.6545 8.48953 16.1922C7.60548 16.6113 7.28447 17.6773 7.23848 18.6388C7.18693 19.7165 6.63652 20.758 5.6559 21.4109C4.00173 22.5123 1.74981 22.0909 0.626093 20.4695C-0.497625 18.8482 -0.0676083 16.6411 1.58656 15.5397C2.72924 14.7788 4.15716 14.7447 5.30139 15.3308C6.17283 15.7771 7.27571 16.042 8.08905 15.5005C9.12894 14.8081 9.12647 13.3044 8.08658 12.612C7.27463 12.0714 6.17108 12.3306 5.29903 12.7723C4.32092 13.2676 3.12522 13.3213 2.05782 12.8153C0.257571 11.9619 -0.495986 9.83967 0.374708 8.07518C1.2454 6.3107 3.41063 5.57211 5.21089 6.42551C6.45473 7.01514 7.1989 8.21048 7.2529 9.47504C7.294 10.4375 7.61125 11.5056 8.49602 11.925C9.62725 12.4613 10.9539 11.7106 11.0457 10.4822L11.0524 10.3921C11.1268 9.39664 10.3098 8.56261 9.45974 8.01296C8.55413 7.42736 7.92585 6.4509 7.84047 5.30835C7.69438 3.35356 9.19275 1.65282 11.1872 1.50964C13.1816 1.36646 14.9168 2.83506 15.0629 4.78984Z" fill="#1A1A17"/>
<path d="M121.246 8.99562V5.61162H121.882V8.99562H121.246ZM120.094 6.11563V5.51562H123.034V6.11563H120.094ZM123.382 8.99562V5.51562H124.21L125.266 8.56363H125.014L126.082 5.51562H126.898V8.99562H126.286V6.16362L126.43 6.23563L125.446 8.99562H124.834L123.85 6.23563L123.982 6.16362V8.99562H123.382Z" fill="#1A1A17"/>
</svg>
