<svg xmlns="http://www.w3.org/2000/svg" width="250" height="56.739" viewBox="0 0 250 56.739"><defs><style>.a{fill:#fdde6e}.b{fill:#090c0d}.c{fill:#d95520}.d{fill:#039c7c}.e{fill:#7d4199}.f{fill:#1eb8e9}</style></defs><title>logo</title><path class="a" d="M21.053.044a4.986 4.986 0 0 1 3.261.541c1.324.979 2.8 1.972 3.408 3.58.659 1.324.343 2.832.184 4.233-.179 1.137-.191 2.294-.352 3.433a13.153 13.153 0 0 1-2.818 3.781 5.721 5.721 0 0 1-1.611 2.21 4.381 4.381 0 0 1-2.76.208 5.925 5.925 0 0 1-2.5-2.088c-.737-1.138-1.52-2.251-2.174-3.442a9.182 9.182 0 0 1-.271-5.661A12.323 12.323 0 0 1 17.233 2.3a6.343 6.343 0 0 1 3.82-2.256z"/><path class="b" d="M92.57 10.884c1.7-.228 3.394-.508 5.1-.7-.021 7.349 0 14.7-.012 22.049a1.55 1.55 0 0 0 .622 1.467 8.829 8.829 0 0 0 2.317.147 54.41 54.41 0 0 0 .007 2.06c-2.879-.012-5.761 0-8.64-.007.005-.687 0-1.373.005-2.058a8.506 8.506 0 0 0 2.35-.147c.671-.231.748-1.033.755-1.639V16.641a17 17 0 0 0-.2-3.787 7.253 7.253 0 0 0-2.291-.2c-.007-.592 0-1.186-.014-1.778zm79.466 1.545a12.686 12.686 0 0 1 5.228-2.086 11.818 11.818 0 0 1 5.1.525 20.493 20.493 0 0 1 3 1.5c.473-.6.865-1.261 1.319-1.879.511.019 1.023.016 1.536.026.1 3.459.343 6.915.443 10.374a56.799 56.799 0 0 0-1.846 0 11.534 11.534 0 0 0-1.188-4.232 6.656 6.656 0 0 0-4.025-3.988 8.584 8.584 0 0 0-4.419-.364 8.511 8.511 0 0 0-4.894 4.06 15.985 15.985 0 0 0-1.906 8.862 12.908 12.908 0 0 0 1.459 4.736c.483 1.438 1.8 2.294 2.995 3.1a7.63 7.63 0 0 0 8.309-.081c.9-.772 1.96-1.545 2.224-2.774a14.744 14.744 0 0 0 .068-3.083 1.171 1.171 0 0 0-.981-1.14 22.751 22.751 0 0 0-2.632-.07 81.43 81.43 0 0 1 0-1.977q4.968.013 9.936 0c0 .664.009 1.326-.007 1.988a17.376 17.376 0 0 0-2.417.058 1.594 1.594 0 0 0-1.166 1.671q-.005 4.385 0 8.773c-.636 0-1.27 0-1.9-.005-.243-.921-.576-1.816-.788-2.745a8.8 8.8 0 0 1-4.871 2.6 11.208 11.208 0 0 1-8.263-1.778 39.241 39.241 0 0 1-2.844-2.893 12.1 12.1 0 0 1-1.864-4.112 24.676 24.676 0 0 1-.126-6.477 11.923 11.923 0 0 1 2.526-6.34 24.254 24.254 0 0 1 1.995-2.247z"/><path class="c" d="M39.7 10.648a4.336 4.336 0 0 1 3.5.613c.469.473 1.149.955 1.082 1.7a5.577 5.577 0 0 1-1.133 2.687c-1.326 1.925-1.794 4.337-3.323 6.135a8.845 8.845 0 0 1-2.489 1.688 10.819 10.819 0 0 1-3.174.124c-1.173-.089-2.331.278-3.5.154a2.636 2.636 0 0 1-1.62-1.261 5.586 5.586 0 0 1-.226-3.783 15.855 15.855 0 0 1 .86-2.669 6.316 6.316 0 0 1 3.3-4.112 8.969 8.969 0 0 1 4.006-.911c.913-.061 1.809-.25 2.715-.37z"/><path class="b" d="M53 10.767c3.221 0 6.444.019 9.666-.011.012.636.012 1.27 0 1.906-1 .095-2.163-.3-3.027.364a2.578 2.578 0 0 0-.426 1.685c.007 2.4-.014 4.8.011 7.206 4.216-.012 8.43 0 12.644-.005v-7.37c-.005-.632-.088-1.445-.762-1.722a9.635 9.635 0 0 0-2.734-.161 28.17 28.17 0 0 1 .009-1.906c3.207.037 6.416.011 9.623.014-.005.631 0 1.259 0 1.888a16.217 16.217 0 0 0-2.659.088 1.507 1.507 0 0 0-.93 1.634q-.008 8.483 0 16.965a3.708 3.708 0 0 0 .319 2.018 1.517 1.517 0 0 0 1.126.482c.716.026 1.434-.012 2.153.019C78 34.543 78 35.224 78 35.907c-3.21-.007-6.421 0-9.631-.005q-.013-1.027 0-2.054a10.659 10.659 0 0 0 2.685-.147c.68-.228.8-1.042.813-1.662q.011-4.133 0-8.265c-4.214.007-8.428.018-12.642 0-.021 2.529 0 5.058-.009 7.587a5.449 5.449 0 0 0 .142 1.634 1.325 1.325 0 0 0 1.263.851c.685.021 1.368-.005 2.053.009.007.683.011 1.368 0 2.053-3.228 0-6.458.018-9.684-.011.007-.681.009-1.363.009-2.044.793-.019 1.59.032 2.384-.033a1.448 1.448 0 0 0 1.07-1.594V14.203a1.5 1.5 0 0 0-.972-1.513c-.823-.068-1.652-.021-2.477-.028V10.77zm67.608.045c2.046 0 4.093.019 6.139-.011.459.9.569 1.913.965 2.832.816 2.315 1.788 4.57 2.6 6.885a28.029 28.029 0 0 1 1.357 3.8 20.767 20.767 0 0 0 1.191 3.235c.478 1.231.874 2.5 1.4 3.708.6-1.557 1.131-3.146 1.8-4.676a26.857 26.857 0 0 1 1.366-4.083c.709-1.6 1.268-3.272 1.9-4.909a28.416 28.416 0 0 0 1.378-3.671 23.27 23.27 0 0 1 1.079-3.093c2.09-.042 4.183 0 6.276-.019 0 .615 0 1.23.005 1.846-.783 0-1.566-.03-2.347.009-.76-.014-1.068.884-1.068 1.513q-.005 9.106 0 18.214c.012.508.121 1.251.72 1.378a22.347 22.347 0 0 0 2.7.079c-.014.676-.021 1.354.011 2.032-3.158.046-6.318.016-9.477.014q-.011-1.025 0-2.049a9.537 9.537 0 0 0 2.682-.172c.553-.238.59-.937.6-1.455-.01-5.335.026-10.67-.018-16a16.855 16.855 0 0 0-1.089 2.907 33.766 33.766 0 0 1-1.561 4.3c-.883 2.48-1.932 4.894-2.811 7.374-.443 1.732-1.172 3.373-1.778 5.053a6.964 6.964 0 0 1-1.611.042c-.5-1.512-1.152-2.974-1.538-4.522-.6-1.643-1.154-3.307-1.853-4.911-.638-1.7-1.2-3.422-1.92-5.085a7.192 7.192 0 0 1-.4-1.256 27.6 27.6 0 0 0-1.3-3.827c-.11 5.193-.018 10.393-.049 15.59-.025.741.207 1.72 1.03 1.921.734.088 1.476.023 2.216.053-.007.68-.009 1.361.005 2.04q-4.3.026-8.6 0c.011-.681.009-1.361 0-2.04.729-.028 1.462.033 2.189-.047.8-.137 1.082-1.032 1.054-1.739v-17.89a1.383 1.383 0 0 0-.965-1.473 21 21 0 0 0-2.277-.051c0-.615.005-1.228.009-1.843z"/><path class="d" d="M6.878 13.714a6.508 6.508 0 0 1 3.78.525 22.986 22.986 0 0 1 3 2.4c.5.462 1.184.671 1.653 1.172.785.872 1.829 1.65 2.067 2.869a3.324 3.324 0 0 1-1.343 3.354 8.681 8.681 0 0 1-3.317 1.608 9.453 9.453 0 0 1-4.806-.212 6.6 6.6 0 0 1-2.9-1 5.709 5.709 0 0 1-1.294-1.7 10.5 10.5 0 0 0-1.843-2.163c-.534-.527-1.308-.792-1.729-1.434a2.49 2.49 0 0 1 .666-2.741 13.614 13.614 0 0 1 1.569-.841 22.871 22.871 0 0 1 4.493-1.832z"/><path class="b" d="M247.236 15.515a2.234 2.234 0 0 0-.448 3.958 2.112 2.112 0 0 0 3.186-1.6 2.155 2.155 0 0 0-2.738-2.358zm2.167 3.4c-.1-.2-.2-.4-.293-.6l-.173.6a3.215 3.215 0 0 0-.762-1.284c.294-.128.739-.254.75-.648-.011-.459-.489-.667-.879-.7a4.356 4.356 0 0 0-1.478.1l.55.117a60.375 60.375 0 0 0 0 2.17c-.13.056-.389.168-.518.222.438.033.879.018 1.322.018l.005-.173-.41-.007c0-.359 0-.718.009-1.077a1.484 1.484 0 0 1 .613.184c.077.308.107.627.2.934.273.172.638.131.941.257a1.941 1.941 0 0 1-2.111.445 2.1 2.1 0 0 1-.711-3.2 1.8 1.8 0 0 1 2.743-.121 2.311 2.311 0 0 1 .199 2.768zm-1.557-2.457c.5-.1.69.518.489.886a1.45 1.45 0 0 1-.821.179c.086-.339-.234-1.103.331-1.061zm-56.613 1.583c1.683-.158 3.358-.406 5.039-.585.005 1.559-.023 3.119.012 4.68.461-.548.736-1.217 1.152-1.8a23.386 23.386 0 0 1 1.5-1.855 3.9 3.9 0 0 1 4.042-.751 3.4 3.4 0 0 1 1.716 3.272c-.089.858-.944 1.324-1.692 1.51a3.092 3.092 0 0 1-1.85-.68 2.061 2.061 0 0 1 .105-2.368 3.773 3.773 0 0 0-2.555 2.273 15.485 15.485 0 0 0-2.384 8.908c.089.958-.24 2.047.287 2.911.86.489 1.916.212 2.862.287a9.832 9.832 0 0 0 .088 2.032c-2.977.054-5.955.018-8.932.021-.007-.683 0-1.366 0-2.049a15.847 15.847 0 0 0 2.4-.088c.552-.075.706-.706.708-1.175.012-2.925 0-5.848.005-8.773a12.818 12.818 0 0 0-.243-3.589 7.7 7.7 0 0 0-2.231-.156c-.033-.676-.023-1.354-.021-2.03zm27.322-.077c2.436-.026 4.873-.007 7.311-.011.005.685 0 1.37.005 2.054a5.023 5.023 0 0 0-2.089.27 8.352 8.352 0 0 0 .648 2.109c.392 1.119.79 2.238 1.154 3.366a20.023 20.023 0 0 0 .977 3.144c.289.825.56 1.657.863 2.48.615-1.65 1.2-3.312 1.937-4.913a12.316 12.316 0 0 0 .748-2.258c.1-.629.487-1.172.574-1.8a15.5 15.5 0 0 1-.638-1.575c-.179-.911-1.319-.827-2.028-.821q-.011-1.025 0-2.049c2.422-.018 4.846-.009 7.27-.005-.009.688 0 1.377 0 2.065-.7.033-1.5-.172-2.112.261a4.967 4.967 0 0 0 .592 2.408 19.14 19.14 0 0 1 .911 3.046 20.648 20.648 0 0 0 .83 2.391c.335 1.068.746 2.114 1.056 3.191.559-1.652 1.075-3.317 1.72-4.937a14.937 14.937 0 0 0 .746-2.533c.186-1.24.984-2.338.921-3.624a4.88 4.88 0 0 0-1.858-.2c-.007-.69-.016-1.38 0-2.07 2.114.009 4.23 0 6.347.005v2.046a2.37 2.37 0 0 0-2.273 1.443 17.1 17.1 0 0 0-1.433 3.522c-.506 1.634-1.282 3.179-1.687 4.845a18.776 18.776 0 0 1-1.081 3.275q-.486 1.408-.977 2.818c-.564.007-1.126.011-1.687-.016a17.147 17.147 0 0 1-.683-2.268 22.631 22.631 0 0 0-1-2.981c-.548-1.73-1.223-3.415-1.811-5.13a43.89 43.89 0 0 0-1.653 4.076 9.183 9.183 0 0 1-.648 2.032c-.66 1.375-1.114 2.836-1.713 4.237a8.954 8.954 0 0 1-1.667.051c-.441-1.068-.508-2.245-.974-3.307-.65-1.538-1.151-3.133-1.708-4.708-.937-2.314-1.671-4.71-2.554-7.043-.454-.835-1.512-.865-2.343-.846 0-.678 0-1.356.005-2.035zM90.845 29.991a9.261 9.261 0 0 1-1.622 2.1 5.608 5.608 0 0 1-3.738 1.855A4.589 4.589 0 0 1 82.258 33a5.858 5.858 0 0 1-1.778-2.02 9.614 9.614 0 0 1-.785-3.568c4.088.005 8.176-.011 12.264.007a18.45 18.45 0 0 0-.56-4.783 8.832 8.832 0 0 0-4.254-4.648 7.194 7.194 0 0 0-9.28 3.812 9.517 9.517 0 0 0-1.1 3.673 11.424 11.424 0 0 0 1 6.365 7.565 7.565 0 0 0 7.2 4.556 7.292 7.292 0 0 0 5.353-2.494 9.825 9.825 0 0 0 1.8-2.967c-.432-.303-.844-.633-1.273-.942zm-10.333-7.668a8.724 8.724 0 0 1 2.331-2.545 3.63 3.63 0 0 1 3.948.5c.4.462.783.948 1.159 1.431a4.469 4.469 0 0 1 .965 3.6 2.154 2.154 0 0 1-.97.219c-2.757-.011-5.514 0-8.27 0a8.514 8.514 0 0 1 .837-3.205zm35.339.168a13.543 13.543 0 0 0-2.391-3.555 6.962 6.962 0 0 0-5.46-1.363 4.787 4.787 0 0 0-3.347 2.2c.014-.625.005-1.249.009-1.872-1.743.166-3.48.387-5.216.608.007.643.009 1.284 0 1.925a7.342 7.342 0 0 1 2.266.275 5.744 5.744 0 0 1 .235 1.886c0 4.965.007 9.931-.005 14.9a3.073 3.073 0 0 1-.268 1.448 6.986 6.986 0 0 1-2.752.242c.009.657.009 1.314-.011 1.97q4.5.013 9 0c-.007-.66 0-1.322-.012-1.983a24.292 24.292 0 0 1-2.475-.025c-.229-.053-.6-.107-.615-.4a31.413 31.413 0 0 1-.149-4.468 4.406 4.406 0 0 0 2.1 1.694 6.684 6.684 0 0 0 6.764-1.119 11.553 11.553 0 0 0 2.72-4.718 13.781 13.781 0 0 0-.393-7.645zm-3.766 10.234a3.49 3.49 0 0 1-5.729.508 5.925 5.925 0 0 1-1.471-3.079 23.52 23.52 0 0 1-.166-4.226 10.251 10.251 0 0 1 .576-3.485c.629-1.214 1.471-2.524 2.89-2.869a3.663 3.663 0 0 1 3.957 1.438A8.886 8.886 0 0 1 113.5 25.9c.069 2.325-.045 4.849-1.415 6.825zm48.763-2.676a7.033 7.033 0 0 1-1.548 2.06c-.361.284-.634.657-.972.962a5.2 5.2 0 0 1-5.162.459 6.552 6.552 0 0 1-2.242-1.825 8.414 8.414 0 0 1-1.17-4.244q6.219-.008 12.439 0a11.961 11.961 0 0 0-.8-4.96 11.437 11.437 0 0 0-3.242-4.065 7.413 7.413 0 0 0-8.169.692 11.257 11.257 0 0 0-2.808 4.577 12.226 12.226 0 0 0 .471 7.847 14.494 14.494 0 0 0 1.9 2.669 5.1 5.1 0 0 0 2.14 1.575 8.072 8.072 0 0 0 6.508-.046 9.9 9.9 0 0 0 2.985-2.794 10.331 10.331 0 0 0 1.186-2l-1.516-.907zm-10.255-7.71a6.456 6.456 0 0 1 2.629-2.587 3.525 3.525 0 0 1 3.592.517 8.263 8.263 0 0 1 1.709 1.974 6.5 6.5 0 0 1 .477 2.912c-.093.457-.648.431-1.007.455-2.748.007-5.5 0-8.246 0a8.188 8.188 0 0 1 .846-3.271zm68.8 1.368a10.9 10.9 0 0 0-2.569-4.24 4.057 4.057 0 0 0-1.387-1.06 7.366 7.366 0 0 0-5.135-.581 6.758 6.758 0 0 0-2.2.965 12.23 12.23 0 0 0-3.013 4 12.331 12.331 0 0 0 .082 8.721 11.945 11.945 0 0 0 2.4 3.3 4.941 4.941 0 0 0 2.473 1.44 7.3 7.3 0 0 0 5.978-.853 8.5 8.5 0 0 0 1.6-1.669 9.6 9.6 0 0 0 1.769-3.233 12.561 12.561 0 0 0 .002-6.79zm-3.4 7.96a5.7 5.7 0 0 1-2.068 2.356 3.829 3.829 0 0 1-4.771-.937 5.381 5.381 0 0 1-1.289-2.522 31.433 31.433 0 0 1-.34-3.237 23.532 23.532 0 0 1 .356-3.855 4.713 4.713 0 0 1 1.063-2.165 3.858 3.858 0 0 1 2.66-1.657 3.778 3.778 0 0 1 3.608 1.606 7.687 7.687 0 0 1 1.531 4.841 12.1 12.1 0 0 1-.75 5.57z"/><path class="e" d="M28.239 27.534c1.557-.184 3 .6 4.4 1.144a10.5 10.5 0 0 1 3.582 2.214 5 5 0 0 1 1.471 2.223c.271 1.615.2 3.258.315 4.885.149 1.529.345 3.2-.473 4.589a3.247 3.247 0 0 1-2.489 1.244 7.8 7.8 0 0 1-3.845-1.277c-.827-.574-1.89-.863-2.457-1.751a31.217 31.217 0 0 1-3.131-4.205c-.608-1.645.156-3.37.016-5.056-.005-.911-.247-1.974.391-2.738a4.157 4.157 0 0 1 2.221-1.27z"/><path class="f" d="M17.383 27.9a2.877 2.877 0 0 1 2.829.753 4.671 4.671 0 0 1 1.2 3.909 11.566 11.566 0 0 1-.846 3.93c-.585.681-.7 1.608-1.224 2.324a7.712 7.712 0 0 1-2.424 2.774c-1.4.517-2.914.706-4.286 1.317-.781.3-1.58.865-2.452.59a4.776 4.776 0 0 1-2.205-1.869c-.581-1.49-.335-3.123-.331-4.682A7.458 7.458 0 0 1 9.116 32.2a9.656 9.656 0 0 1 3.084-2.146 22.625 22.625 0 0 0 3.181-1.4 6.145 6.145 0 0 1 2-.758z"/><path class="b" d="M148.281 42.85a1.088 1.088 0 0 1 1.34 1.114 1.112 1.112 0 0 1-1.893.8 1.142 1.142 0 0 1 .553-1.913zm29.635.538a101.56 101.56 0 0 0 3.009-.7c.007 3.988-.018 7.976.012 11.963.012.837.946 1.109 1.639 1.075-.011.282-.018.564-.021.848h-4.635v-.855c.7.054 1.608-.247 1.638-1.074.058-2.745 0-5.491.026-8.237a2.775 2.775 0 0 0-.354-1.776 1.815 1.815 0 0 0-1.308-.382 49.462 49.462 0 0 1-.007-.862zm12.026.82a3.64 3.64 0 0 1 3.855-1.219 3.256 3.256 0 0 1 1.089.825c.065-.2.135-.4.207-.6h.751c.424 1.315.813 2.646 1.326 3.932q-.531.158-1.054.319a10.724 10.724 0 0 0-1.718-2.738 1.894 1.894 0 0 0-1.925-.552 2.976 2.976 0 0 0-1.829 1.9 9.629 9.629 0 0 0-.729 3.837 7.928 7.928 0 0 0 1.195 4.568 2.618 2.618 0 0 0 3.114.976A5.026 5.026 0 0 0 196.247 52c.384.156.767.314 1.156.462a5.545 5.545 0 0 1-2.021 3.692 4.71 4.71 0 0 1-3.252.489 3.5 3.5 0 0 1-1.953-.9A9.165 9.165 0 0 1 189 45.9c.277-.581.631-1.124.939-1.69zM120.64 43.09c1.259-.012 2.519.007 3.78-.012.643 1.328 1.182 2.706 1.921 3.986a12.951 12.951 0 0 1 1.018 2.487 18.33 18.33 0 0 0 1.475 3c.005-2.282 0-4.563 0-6.843a1.571 1.571 0 0 0-.422-1.233 2.149 2.149 0 0 0-1.589-.382c-.005-.335-.009-.671-.016-1 1.655-.011 3.31 0 4.967-.007a24.04 24.04 0 0 0-.007 1.005 2.029 2.029 0 0 0-1.377.3 1.875 1.875 0 0 0-.461 1.491c.005 3.562 0 7.125 0 10.687-.361 0-.722 0-1.081.009a26.451 26.451 0 0 1-1.753-4.19c-.958-1.765-1.7-3.641-2.58-5.442a12.686 12.686 0 0 1-.8-1.617c-.026 2.759-.005 5.517-.01 8.276.025.627.061 1.4.669 1.755a3.831 3.831 0 0 0 1.65.208c-.005.335-.005.669-.007 1.005-1.792-.007-3.582 0-5.374 0l-.016-1a2.717 2.717 0 0 0 1.92-.431 6.444 6.444 0 0 0 .147-1.37c-.007-2.8 0-5.606 0-8.409-.028-.3 0-.678-.254-.9a2.569 2.569 0 0 0-1.8-.375c0-.336 0-.671-.011-1.005zm21.308.462l.592.016c.005 1.256 0 2.51 0 3.766.913-.007 1.823 0 2.738 0a2.336 2.336 0 0 0-.117.967c-.874 0-1.746-.005-2.617 0 0 1.82-.005 3.64 0 5.458 0 .564.14 1.287.751 1.492.736.249 1.4-.3 1.865-.8.191.193.385.385.574.585-.525.636-1.025 1.415-1.913 1.547-.7.067-1.569.186-2.1-.385a3.477 3.477 0 0 1-.673-2.256c-.007-1.879 0-3.76 0-5.64-.571-.009-1.142-.007-1.711-.011 0-.284.007-.566.012-.848 1.8-.345 2.407-2.314 2.6-3.9zm76.11.018c.145 0 .434-.005.58-.005a235.63 235.63 0 0 1 0 3.76c.862.014 1.725.007 2.589 0v.972c-.856-.005-1.713.005-2.568-.007a224.879 224.879 0 0 0-.005 5.323c.033.583.089 1.366.725 1.613a1.689 1.689 0 0 0 1.869-.8c.212.187.424.375.638.567-.494.48-.8 1.184-1.48 1.438a3.52 3.52 0 0 1-2 .119c-.9-.324-1.161-1.394-1.2-2.251-.014-2 0-4.006-.005-6.008h-1.716c.065-.328-.184-.9.3-.956 1.59-.485 2.107-2.3 2.273-3.773zm-71.886 4.181c1.042-.24 2.072-.525 3.116-.764-.009 2.438 0 4.874-.005 7.312a1.51 1.51 0 0 0 .328 1.051c.217.389.718.3 1.088.384-.011.278-.016.559-.019.839-1.5-.007-3.009.014-4.514-.011v-.828c.694.007 1.552-.329 1.6-1.131.068-1.447 0-2.9.032-4.342-.016-.466.047-1.047-.359-1.373-.347-.31-.846-.214-1.268-.263v-.874zm12.791-.168c1.009-.186 2.012-.4 3.02-.6 0 .475 0 .949.011 1.424 1.025-.627 2.037-1.611 3.349-1.373a1.545 1.545 0 0 1 1.426 1.471c.1 2.107-.046 4.226.072 6.332a1.075 1.075 0 0 0 1.238.9v.823c-1.422.023-2.844.009-4.265.007 0-.284 0-.564.007-.846.413-.054.911 0 1.219-.345a1.886 1.886 0 0 0 .275-1.251c-.01-1.582 0-3.163-.005-4.745a1.024 1.024 0 0 0-1-1c-.909-.053-1.557.66-2.3 1.047-.016 1.8-.046 3.6.014 5.4.021.6.646.851 1.158.92v.821c-1.4.012-2.808 0-4.211.005 0-.285-.005-.571-.007-.855.6.035 1.476-.131 1.517-.884.046-1.522 0-3.046.021-4.57a2.257 2.257 0 0 0-.326-1.491c-.3-.349-.8-.282-1.205-.317v-.874zm47.597-.004c.941-.156 1.857-.427 2.8-.576q0 .72.007 1.44a8.981 8.981 0 0 1 2.785-1.415 2.274 2.274 0 0 1 1.221.182 1.739 1.739 0 0 1 .807 1.646v4.739a3.329 3.329 0 0 0 .378 1.974 6.2 6.2 0 0 0 1.067.142v.862h-4.244a60.45 60.45 0 0 1-.014-.848c.42-.021.934-.028 1.166-.455a3.793 3.793 0 0 0 .2-1.673c-.019-1.4.026-2.8-.019-4.191-.017-.494-.392-1.077-.944-1.025a5.723 5.723 0 0 0-2.4 1.063c-.009 1.617 0 3.233-.009 4.852a1.452 1.452 0 0 0 .391 1.152c.273.254.674.214 1.019.284-.007.278-.009.559-.007.841h-4.211v-.853c.5-.005 1.317-.039 1.319-.718.054-1.457.005-2.916.023-4.375a6.919 6.919 0 0 0-.109-1.755c-.233-.445-.809-.387-1.231-.408q0-.441.005-.883zm23.553-.002c.974-.214 1.956-.389 2.935-.583v2.021a8.412 8.412 0 0 1 1.744-1.808 1.991 1.991 0 0 1 1.878.054 1.157 1.157 0 0 1-.378 1.841 4.292 4.292 0 0 1-1.571-.191 1.835 1.835 0 0 0-1.508 1.275 12.65 12.65 0 0 0-.161 3.058c.035.678-.151 1.462.3 2.04a1.633 1.633 0 0 0 1.359.424v.863h-4.591a34.42 34.42 0 0 1-.014-.848c.569.016 1.4-.173 1.436-.876.042-1.645.005-3.293.018-4.937a1.515 1.515 0 0 0-.38-1.214 2.11 2.11 0 0 0-1.068-.252v-.869zm-72.7.641a3.458 3.458 0 0 0-3.433-1.11 4.07 4.07 0 0 0-2.606 2.5 6.121 6.121 0 0 0 .469 5.554 3.067 3.067 0 0 0 2.315 1.54 3.707 3.707 0 0 0 2.713-.559 4.985 4.985 0 0 0 1.734-4.135 5.292 5.292 0 0 0-1.192-3.79zm-1.051 6.515a1.888 1.888 0 0 1-2.16.89c-1.291-.673-1.59-2.279-1.6-3.6-.023-1.377.277-3.055 1.617-3.76a1.924 1.924 0 0 1 1.923.529 4.3 4.3 0 0 1 .858 2.714 5.9 5.9 0 0 1-.637 3.228zm46.8.717a1.988 1.988 0 0 1-2.363-.7 5.04 5.04 0 0 1-.753-3.121c1.9-.012 3.809.025 5.713-.023-.068-1.774-.814-3.8-2.6-4.487a3.7 3.7 0 0 0-4.464 3.3 9.806 9.806 0 0 0 .121 3.865 4 4 0 0 0 2.095 2.286 5.932 5.932 0 0 0 2.783.016 3.728 3.728 0 0 0 2.049-2.8c-.426-.1-.846-.191-1.268-.28a3.682 3.682 0 0 1-1.313 1.944zm-2.382-6.55a1.85 1.85 0 0 1 2.34-.471 4.387 4.387 0 0 1 .835 2.1c-1.273.005-2.545 0-3.815 0a3.563 3.563 0 0 1 .64-1.629zm27.58 4.6a2.918 2.918 0 0 1-1.562 1.991 1.807 1.807 0 0 1-2-.58 4.715 4.715 0 0 1-.853-3.288c1.886 0 3.774.018 5.661-.009a4.943 4.943 0 0 0-1.981-4.19 3.281 3.281 0 0 0-4.3 1.1c-1.5 2.179-1.515 5.528.487 7.409.928.976 2.408.872 3.626.681a3.692 3.692 0 0 0 2.209-2.788 12.9 12.9 0 0 0-1.287-.326zm-3.186-5.049a1.528 1.528 0 0 1 1.878.163 3.4 3.4 0 0 1 .767 1.918c-1.272 0-2.541.007-3.811 0a2.865 2.865 0 0 1 1.166-2.084zm-85.359 6.479c-.35.277-.758.757-1.254.524-.459-.168-.511-.75-.559-1.165-.033-1.737.012-3.475-.019-5.211a1.9 1.9 0 0 0-.974-1.857 4.352 4.352 0 0 0-3.629.471c-.59.329-1.23.93-1.056 1.676a.881.881 0 0 0 1.142.611c.8-.233.639-1.333 1.324-1.709a1.183 1.183 0 0 1 1.345.044 5.433 5.433 0 0 1 .278 2.282c-1.012.326-2.042.6-3.027 1a2.4 2.4 0 0 0-1.685 1.144 5.1 5.1 0 0 0 .061 3.295c.52.8 1.6.7 2.428.678a2.592 2.592 0 0 0 2.294-1.373c.182.445.27 1.044.755 1.27a3.828 3.828 0 0 0 1.771.037c.59-.119.967-.641 1.371-1.042-.186-.227-.381-.453-.566-.675zm-3.7-.263a2.053 2.053 0 0 1-2.792.469 1.823 1.823 0 0 1 .45-2.624 6.09 6.09 0 0 1 2.646-.909c-.081 1.019.197 2.122-.307 3.064zm40.918.27c-.34.2-.634.727-1.081.534-.545-.193-.566-.863-.608-1.343-.021-1.7.007-3.393-.011-5.088a1.85 1.85 0 0 0-.949-1.809 4.33 4.33 0 0 0-4.011.7 1.347 1.347 0 0 0-.616 1.62.926.926 0 0 0 1.491.163c.326-.462.408-1.072.8-1.487a1.259 1.259 0 0 1 1.37.126 3.84 3.84 0 0 1 .342 2.238 14.092 14.092 0 0 0-2.433.79 6 6 0 0 0-1.888.856 3.07 3.07 0 0 0-.73 2.911 1.85 1.85 0 0 0 1.389 1.508 4.571 4.571 0 0 0 2.254-.128 4.847 4.847 0 0 0 1.517-1.187 2.1 2.1 0 0 0 .613 1.228 3.471 3.471 0 0 0 1.892.067 4.049 4.049 0 0 0 1.184-1.04 39.845 39.845 0 0 1-.525-.659zm-3.823-.145a1.924 1.924 0 0 1-2.352.466 1.7 1.7 0 0 1 .067-2.571 4.508 4.508 0 0 1 2.837-1.065c-.125 1.047.364 2.378-.552 3.17z"/></svg>